ISO-10303-21;
HEADER;
FILE_DESCRIPTION(('FreeCAD Model'),'2;1');
FILE_NAME('Open CASCADE Shape Model','2026-02-16T16:53:27',(''),(''),
  'Open CASCADE STEP processor 7.8','FreeCAD','Unknown');
FILE_SCHEMA(('AUTOMOTIVE_DESIGN { 1 0 10303 214 1 1 1 1 }'));
ENDSEC;
DATA;
#1 = APPLICATION_PROTOCOL_DEFINITION('international standard',
  'automotive_design',2000,#2);
#2 = APPLICATION_CONTEXT(
  'core data for automotive mechanical design processes');
#3 = SHAPE_DEFINITION_REPRESENTATION(#4,#10);
#4 = PRODUCT_DEFINITION_SHAPE('','',#5);
#5 = PRODUCT_DEFINITION('design','',#6,#9);
#6 = PRODUCT_DEFINITION_FORMATION('','',#7);
#7 = PRODUCT('Body','Body','',(#8));
#8 = PRODUCT_CONTEXT('',#2,'mechanical');
#9 = PRODUCT_DEFINITION_CONTEXT('part definition',#2,'design');
#10 = ADVANCED_BREP_SHAPE_REPRESENTATION('',(#11,#15),#1370);
#11 = AXIS2_PLACEMENT_3D('',#12,#13,#14);
#12 = CARTESIAN_POINT('',(0.,0.,0.));
#13 = DIRECTION('',(0.,0.,1.));
#14 = DIRECTION('',(1.,0.,-0.));
#15 = MANIFOLD_SOLID_BREP('',#16);
#16 = CLOSED_SHELL('',(#17,#50,#75,#286,#295,#334,#358,#382,#414,#446,
    #470,#494,#519,#550,#574,#598,#615,#646,#670,#694,#711,#742,#766,
    #790,#807,#838,#862,#886,#903,#921,#939,#957,#975,#987,#999,#1011,
    #1023,#1051,#1076,#1096,#1121,#1146,#1171,#1196,#1221,#1246,#1266,
    #1291,#1311,#1336,#1361));
#17 = ADVANCED_FACE('',(#18),#45,.T.);
#18 = FACE_BOUND('',#19,.F.);
#19 = EDGE_LOOP('',(#20,#30,#37,#38));
#20 = ORIENTED_EDGE('',*,*,#21,.T.);
#21 = EDGE_CURVE('',#22,#24,#26,.T.);
#22 = VERTEX_POINT('',#23);
#23 = CARTESIAN_POINT('',(0.35,0.,0.));
#24 = VERTEX_POINT('',#25);
#25 = CARTESIAN_POINT('',(0.35,0.,-2.95));
#26 = LINE('',#27,#28);
#27 = CARTESIAN_POINT('',(0.35,0.,0.));
#28 = VECTOR('',#29,1.);
#29 = DIRECTION('',(0.,0.,-1.));
#30 = ORIENTED_EDGE('',*,*,#31,.T.);
#31 = EDGE_CURVE('',#24,#24,#32,.T.);
#32 = CIRCLE('',#33,0.35);
#33 = AXIS2_PLACEMENT_3D('',#34,#35,#36);
#34 = CARTESIAN_POINT('',(0.,0.,-2.95));
#35 = DIRECTION('',(0.,0.,-1.));
#36 = DIRECTION('',(1.,0.,0.));
#37 = ORIENTED_EDGE('',*,*,#21,.F.);
#38 = ORIENTED_EDGE('',*,*,#39,.F.);
#39 = EDGE_CURVE('',#22,#22,#40,.T.);
#40 = CIRCLE('',#41,0.35);
#41 = AXIS2_PLACEMENT_3D('',#42,#43,#44);
#42 = CARTESIAN_POINT('',(0.,0.,0.));
#43 = DIRECTION('',(0.,0.,-1.));
#44 = DIRECTION('',(1.,0.,0.));
#45 = CYLINDRICAL_SURFACE('',#46,0.35);
#46 = AXIS2_PLACEMENT_3D('',#47,#48,#49);
#47 = CARTESIAN_POINT('',(0.,0.,0.));
#48 = DIRECTION('',(0.,0.,1.));
#49 = DIRECTION('',(1.,0.,0.));
#50 = ADVANCED_FACE('',(#51),#70,.T.);
#51 = FACE_BOUND('',#52,.T.);
#52 = EDGE_LOOP('',(#53,#61,#62,#63));
#53 = ORIENTED_EDGE('',*,*,#54,.F.);
#54 = EDGE_CURVE('',#24,#55,#57,.T.);
#55 = VERTEX_POINT('',#56);
#56 = CARTESIAN_POINT('',(0.25,0.,-3.05));
#57 = LINE('',#58,#59);
#58 = CARTESIAN_POINT('',(0.35,0.,-2.95));
#59 = VECTOR('',#60,1.);
#60 = DIRECTION('',(-0.707106781187,0.,-0.707106781187));
#61 = ORIENTED_EDGE('',*,*,#31,.T.);
#62 = ORIENTED_EDGE('',*,*,#54,.T.);
#63 = ORIENTED_EDGE('',*,*,#64,.F.);
#64 = EDGE_CURVE('',#55,#55,#65,.T.);
#65 = CIRCLE('',#66,0.25);
#66 = AXIS2_PLACEMENT_3D('',#67,#68,#69);
#67 = CARTESIAN_POINT('',(0.,0.,-3.05));
#68 = DIRECTION('',(0.,0.,-1.));
#69 = DIRECTION('',(1.,0.,0.));
#70 = CONICAL_SURFACE('',#71,0.35,0.785398163397);
#71 = AXIS2_PLACEMENT_3D('',#72,#73,#74);
#72 = CARTESIAN_POINT('',(0.,0.,-2.95));
#73 = DIRECTION('',(0.,0.,1.));
#74 = DIRECTION('',(1.,0.,0.));
#75 = ADVANCED_FACE('',(#76,#142,#176,#210,#244,#247),#281,.F.);
#76 = FACE_BOUND('',#77,.F.);
#77 = EDGE_LOOP('',(#78,#88,#96,#104,#112,#120,#128,#136));
#78 = ORIENTED_EDGE('',*,*,#79,.T.);
#79 = EDGE_CURVE('',#80,#82,#84,.T.);
#80 = VERTEX_POINT('',#81);
#81 = CARTESIAN_POINT('',(-1.75,1.35,0.));
#82 = VERTEX_POINT('',#83);
#83 = CARTESIAN_POINT('',(-1.75,-1.35,0.));
#84 = LINE('',#85,#86);
#85 = CARTESIAN_POINT('',(-1.75,1.75,0.));
#86 = VECTOR('',#87,1.);
#87 = DIRECTION('',(0.,-1.,0.));
#88 = ORIENTED_EDGE('',*,*,#89,.T.);
#89 = EDGE_CURVE('',#82,#90,#92,.T.);
#90 = VERTEX_POINT('',#91);
#91 = CARTESIAN_POINT('',(-1.35,-1.75,0.));
#92 = LINE('',#93,#94);
#93 = CARTESIAN_POINT('',(-1.55,-1.55,0.));
#94 = VECTOR('',#95,1.);
#95 = DIRECTION('',(0.707106781187,-0.707106781187,0.));
#96 = ORIENTED_EDGE('',*,*,#97,.T.);
#97 = EDGE_CURVE('',#90,#98,#100,.T.);
#98 = VERTEX_POINT('',#99);
#99 = CARTESIAN_POINT('',(1.35,-1.75,0.));
#100 = LINE('',#101,#102);
#101 = CARTESIAN_POINT('',(-1.75,-1.75,0.));
#102 = VECTOR('',#103,1.);
#103 = DIRECTION('',(1.,0.,0.));
#104 = ORIENTED_EDGE('',*,*,#105,.T.);
#105 = EDGE_CURVE('',#98,#106,#108,.T.);
#106 = VERTEX_POINT('',#107);
#107 = CARTESIAN_POINT('',(1.75,-1.35,0.));
#108 = LINE('',#109,#110);
#109 = CARTESIAN_POINT('',(1.55,-1.55,0.));
#110 = VECTOR('',#111,1.);
#111 = DIRECTION('',(0.707106781187,0.707106781187,0.));
#112 = ORIENTED_EDGE('',*,*,#113,.T.);
#113 = EDGE_CURVE('',#106,#114,#116,.T.);
#114 = VERTEX_POINT('',#115);
#115 = CARTESIAN_POINT('',(1.75,1.35,0.));
#116 = LINE('',#117,#118);
#117 = CARTESIAN_POINT('',(1.75,-1.75,0.));
#118 = VECTOR('',#119,1.);
#119 = DIRECTION('',(0.,1.,0.));
#120 = ORIENTED_EDGE('',*,*,#121,.T.);
#121 = EDGE_CURVE('',#114,#122,#124,.T.);
#122 = VERTEX_POINT('',#123);
#123 = CARTESIAN_POINT('',(1.35,1.75,0.));
#124 = LINE('',#125,#126);
#125 = CARTESIAN_POINT('',(1.55,1.55,0.));
#126 = VECTOR('',#127,1.);
#127 = DIRECTION('',(-0.707106781187,0.707106781187,0.));
#128 = ORIENTED_EDGE('',*,*,#129,.T.);
#129 = EDGE_CURVE('',#122,#130,#132,.T.);
#130 = VERTEX_POINT('',#131);
#131 = CARTESIAN_POINT('',(-1.35,1.75,0.));
#132 = LINE('',#133,#134);
#133 = CARTESIAN_POINT('',(1.75,1.75,0.));
#134 = VECTOR('',#135,1.);
#135 = DIRECTION('',(-1.,0.,0.));
#136 = ORIENTED_EDGE('',*,*,#137,.F.);
#137 = EDGE_CURVE('',#80,#130,#138,.T.);
#138 = LINE('',#139,#140);
#139 = CARTESIAN_POINT('',(-1.55,1.55,0.));
#140 = VECTOR('',#141,1.);
#141 = DIRECTION('',(0.707106781187,0.707106781187,0.));
#142 = FACE_BOUND('',#143,.F.);
#143 = EDGE_LOOP('',(#144,#154,#162,#170));
#144 = ORIENTED_EDGE('',*,*,#145,.T.);
#145 = EDGE_CURVE('',#146,#148,#150,.T.);
#146 = VERTEX_POINT('',#147);
#147 = CARTESIAN_POINT('',(-1.02,-1.52,0.));
#148 = VERTEX_POINT('',#149);
#149 = CARTESIAN_POINT('',(-1.52,-1.52,0.));
#150 = LINE('',#151,#152);
#151 = CARTESIAN_POINT('',(-1.02,-1.52,0.));
#152 = VECTOR('',#153,1.);
#153 = DIRECTION('',(-1.,0.,0.));
#154 = ORIENTED_EDGE('',*,*,#155,.T.);
#155 = EDGE_CURVE('',#148,#156,#158,.T.);
#156 = VERTEX_POINT('',#157);
#157 = CARTESIAN_POINT('',(-1.52,-1.02,0.));
#158 = LINE('',#159,#160);
#159 = CARTESIAN_POINT('',(-1.52,-1.52,0.));
#160 = VECTOR('',#161,1.);
#161 = DIRECTION('',(0.,1.,0.));
#162 = ORIENTED_EDGE('',*,*,#163,.T.);
#163 = EDGE_CURVE('',#156,#164,#166,.T.);
#164 = VERTEX_POINT('',#165);
#165 = CARTESIAN_POINT('',(-1.02,-1.02,0.));
#166 = LINE('',#167,#168);
#167 = CARTESIAN_POINT('',(-1.52,-1.02,0.));
#168 = VECTOR('',#169,1.);
#169 = DIRECTION('',(1.,0.,0.));
#170 = ORIENTED_EDGE('',*,*,#171,.T.);
#171 = EDGE_CURVE('',#164,#146,#172,.T.);
#172 = LINE('',#173,#174);
#173 = CARTESIAN_POINT('',(-1.02,-1.02,0.));
#174 = VECTOR('',#175,1.);
#175 = DIRECTION('',(0.,-1.,0.));
#176 = FACE_BOUND('',#177,.F.);
#177 = EDGE_LOOP('',(#178,#188,#196,#204));
#178 = ORIENTED_EDGE('',*,*,#179,.T.);
#179 = EDGE_CURVE('',#180,#182,#184,.T.);
#180 = VERTEX_POINT('',#181);
#181 = CARTESIAN_POINT('',(1.52,-1.52,0.));
#182 = VERTEX_POINT('',#183);
#183 = CARTESIAN_POINT('',(1.02,-1.52,0.));
#184 = LINE('',#185,#186);
#185 = CARTESIAN_POINT('',(1.52,-1.52,0.));
#186 = VECTOR('',#187,1.);
#187 = DIRECTION('',(-1.,0.,0.));
#188 = ORIENTED_EDGE('',*,*,#189,.T.);
#189 = EDGE_CURVE('',#182,#190,#192,.T.);
#190 = VERTEX_POINT('',#191);
#191 = CARTESIAN_POINT('',(1.02,-1.02,0.));
#192 = LINE('',#193,#194);
#193 = CARTESIAN_POINT('',(1.02,-1.52,0.));
#194 = VECTOR('',#195,1.);
#195 = DIRECTION('',(0.,1.,0.));
#196 = ORIENTED_EDGE('',*,*,#197,.T.);
#197 = EDGE_CURVE('',#190,#198,#200,.T.);
#198 = VERTEX_POINT('',#199);
#199 = CARTESIAN_POINT('',(1.52,-1.02,0.));
#200 = LINE('',#201,#202);
#201 = CARTESIAN_POINT('',(1.02,-1.02,0.));
#202 = VECTOR('',#203,1.);
#203 = DIRECTION('',(1.,0.,0.));
#204 = ORIENTED_EDGE('',*,*,#205,.T.);
#205 = EDGE_CURVE('',#198,#180,#206,.T.);
#206 = LINE('',#207,#208);
#207 = CARTESIAN_POINT('',(1.52,-1.02,0.));
#208 = VECTOR('',#209,1.);
#209 = DIRECTION('',(0.,-1.,0.));
#210 = FACE_BOUND('',#211,.F.);
#211 = EDGE_LOOP('',(#212,#222,#230,#238));
#212 = ORIENTED_EDGE('',*,*,#213,.T.);
#213 = EDGE_CURVE('',#214,#216,#218,.T.);
#214 = VERTEX_POINT('',#215);
#215 = CARTESIAN_POINT('',(-1.02,1.02,0.));
#216 = VERTEX_POINT('',#217);
#217 = CARTESIAN_POINT('',(-1.52,1.02,0.));
#218 = LINE('',#219,#220);
#219 = CARTESIAN_POINT('',(-1.02,1.02,0.));
#220 = VECTOR('',#221,1.);
#221 = DIRECTION('',(-1.,0.,0.));
#222 = ORIENTED_EDGE('',*,*,#223,.T.);
#223 = EDGE_CURVE('',#216,#224,#226,.T.);
#224 = VERTEX_POINT('',#225);
#225 = CARTESIAN_POINT('',(-1.52,1.52,0.));
#226 = LINE('',#227,#228);
#227 = CARTESIAN_POINT('',(-1.52,1.02,0.));
#228 = VECTOR('',#229,1.);
#229 = DIRECTION('',(0.,1.,0.));
#230 = ORIENTED_EDGE('',*,*,#231,.T.);
#231 = EDGE_CURVE('',#224,#232,#234,.T.);
#232 = VERTEX_POINT('',#233);
#233 = CARTESIAN_POINT('',(-1.02,1.52,0.));
#234 = LINE('',#235,#236);
#235 = CARTESIAN_POINT('',(-1.52,1.52,0.));
#236 = VECTOR('',#237,1.);
#237 = DIRECTION('',(1.,0.,0.));
#238 = ORIENTED_EDGE('',*,*,#239,.T.);
#239 = EDGE_CURVE('',#232,#214,#240,.T.);
#240 = LINE('',#241,#242);
#241 = CARTESIAN_POINT('',(-1.02,1.52,0.));
#242 = VECTOR('',#243,1.);
#243 = DIRECTION('',(0.,-1.,0.));
#244 = FACE_BOUND('',#245,.F.);
#245 = EDGE_LOOP('',(#246));
#246 = ORIENTED_EDGE('',*,*,#39,.T.);
#247 = FACE_BOUND('',#248,.F.);
#248 = EDGE_LOOP('',(#249,#259,#267,#275));
#249 = ORIENTED_EDGE('',*,*,#250,.T.);
#250 = EDGE_CURVE('',#251,#253,#255,.T.);
#251 = VERTEX_POINT('',#252);
#252 = CARTESIAN_POINT('',(1.52,1.52,0.));
#253 = VERTEX_POINT('',#254);
#254 = CARTESIAN_POINT('',(1.52,1.02,0.));
#255 = LINE('',#256,#257);
#256 = CARTESIAN_POINT('',(1.52,1.52,0.));
#257 = VECTOR('',#258,1.);
#258 = DIRECTION('',(0.,-1.,0.));
#259 = ORIENTED_EDGE('',*,*,#260,.T.);
#260 = EDGE_CURVE('',#253,#261,#263,.T.);
#261 = VERTEX_POINT('',#262);
#262 = CARTESIAN_POINT('',(1.02,1.02,0.));
#263 = LINE('',#264,#265);
#264 = CARTESIAN_POINT('',(1.52,1.02,0.));
#265 = VECTOR('',#266,1.);
#266 = DIRECTION('',(-1.,0.,0.));
#267 = ORIENTED_EDGE('',*,*,#268,.T.);
#268 = EDGE_CURVE('',#261,#269,#271,.T.);
#269 = VERTEX_POINT('',#270);
#270 = CARTESIAN_POINT('',(1.02,1.52,0.));
#271 = LINE('',#272,#273);
#272 = CARTESIAN_POINT('',(1.02,1.02,0.));
#273 = VECTOR('',#274,1.);
#274 = DIRECTION('',(0.,1.,0.));
#275 = ORIENTED_EDGE('',*,*,#276,.T.);
#276 = EDGE_CURVE('',#269,#251,#277,.T.);
#277 = LINE('',#278,#279);
#278 = CARTESIAN_POINT('',(1.02,1.52,0.));
#279 = VECTOR('',#280,1.);
#280 = DIRECTION('',(1.,0.,0.));
#281 = PLANE('',#282);
#282 = AXIS2_PLACEMENT_3D('',#283,#284,#285);
#283 = CARTESIAN_POINT('',(0.,0.,0.));
#284 = DIRECTION('',(0.,0.,1.));
#285 = DIRECTION('',(1.,0.,0.));
#286 = ADVANCED_FACE('',(#287),#290,.F.);
#287 = FACE_BOUND('',#288,.F.);
#288 = EDGE_LOOP('',(#289));
#289 = ORIENTED_EDGE('',*,*,#64,.F.);
#290 = PLANE('',#291);
#291 = AXIS2_PLACEMENT_3D('',#292,#293,#294);
#292 = CARTESIAN_POINT('',(4.E-17,-5.E-17,-3.05));
#293 = DIRECTION('',(0.,0.,1.));
#294 = DIRECTION('',(1.,0.,0.));
#295 = ADVANCED_FACE('',(#296),#329,.F.);
#296 = FACE_BOUND('',#297,.F.);
#297 = EDGE_LOOP('',(#298,#299,#307,#315,#323));
#298 = ORIENTED_EDGE('',*,*,#79,.F.);
#299 = ORIENTED_EDGE('',*,*,#300,.T.);
#300 = EDGE_CURVE('',#80,#301,#303,.T.);
#301 = VERTEX_POINT('',#302);
#302 = CARTESIAN_POINT('',(-1.75,1.35,1.));
#303 = LINE('',#304,#305);
#304 = CARTESIAN_POINT('',(-1.75,1.35,0.));
#305 = VECTOR('',#306,1.);
#306 = DIRECTION('',(0.,0.,1.));
#307 = ORIENTED_EDGE('',*,*,#308,.T.);
#308 = EDGE_CURVE('',#301,#309,#311,.T.);
#309 = VERTEX_POINT('',#310);
#310 = CARTESIAN_POINT('',(-1.75,-3.E-15,1.));
#311 = LINE('',#312,#313);
#312 = CARTESIAN_POINT('',(-1.75,1.75,1.));
#313 = VECTOR('',#314,1.);
#314 = DIRECTION('',(0.,-1.,0.));
#315 = ORIENTED_EDGE('',*,*,#316,.T.);
#316 = EDGE_CURVE('',#309,#317,#319,.T.);
#317 = VERTEX_POINT('',#318);
#318 = CARTESIAN_POINT('',(-1.75,-1.35,1.));
#319 = LINE('',#320,#321);
#320 = CARTESIAN_POINT('',(-1.75,1.75,1.));
#321 = VECTOR('',#322,1.);
#322 = DIRECTION('',(0.,-1.,0.));
#323 = ORIENTED_EDGE('',*,*,#324,.F.);
#324 = EDGE_CURVE('',#82,#317,#325,.T.);
#325 = LINE('',#326,#327);
#326 = CARTESIAN_POINT('',(-1.75,-1.35,0.));
#327 = VECTOR('',#328,1.);
#328 = DIRECTION('',(0.,0.,1.));
#329 = PLANE('',#330);
#330 = AXIS2_PLACEMENT_3D('',#331,#332,#333);
#331 = CARTESIAN_POINT('',(-1.75,1.75,0.));
#332 = DIRECTION('',(1.,0.,0.));
#333 = DIRECTION('',(0.,-1.,0.));
#334 = ADVANCED_FACE('',(#335),#353,.T.);
#335 = FACE_BOUND('',#336,.T.);
#336 = EDGE_LOOP('',(#337,#338,#339,#347));
#337 = ORIENTED_EDGE('',*,*,#137,.F.);
#338 = ORIENTED_EDGE('',*,*,#300,.T.);
#339 = ORIENTED_EDGE('',*,*,#340,.T.);
#340 = EDGE_CURVE('',#301,#341,#343,.T.);
#341 = VERTEX_POINT('',#342);
#342 = CARTESIAN_POINT('',(-1.35,1.75,1.));
#343 = LINE('',#344,#345);
#344 = CARTESIAN_POINT('',(-1.55,1.55,1.));
#345 = VECTOR('',#346,1.);
#346 = DIRECTION('',(0.707106781187,0.707106781187,0.));
#347 = ORIENTED_EDGE('',*,*,#348,.F.);
#348 = EDGE_CURVE('',#130,#341,#349,.T.);
#349 = LINE('',#350,#351);
#350 = CARTESIAN_POINT('',(-1.35,1.75,0.));
#351 = VECTOR('',#352,1.);
#352 = DIRECTION('',(0.,0.,1.));
#353 = PLANE('',#354);
#354 = AXIS2_PLACEMENT_3D('',#355,#356,#357);
#355 = CARTESIAN_POINT('',(-1.55,1.55,0.));
#356 = DIRECTION('',(-0.707106781187,0.707106781187,0.));
#357 = DIRECTION('',(0.,0.,1.));
#358 = ADVANCED_FACE('',(#359),#377,.T.);
#359 = FACE_BOUND('',#360,.F.);
#360 = EDGE_LOOP('',(#361,#362,#363,#371));
#361 = ORIENTED_EDGE('',*,*,#89,.F.);
#362 = ORIENTED_EDGE('',*,*,#324,.T.);
#363 = ORIENTED_EDGE('',*,*,#364,.T.);
#364 = EDGE_CURVE('',#317,#365,#367,.T.);
#365 = VERTEX_POINT('',#366);
#366 = CARTESIAN_POINT('',(-1.35,-1.75,1.));
#367 = LINE('',#368,#369);
#368 = CARTESIAN_POINT('',(-1.55,-1.55,1.));
#369 = VECTOR('',#370,1.);
#370 = DIRECTION('',(0.707106781187,-0.707106781187,0.));
#371 = ORIENTED_EDGE('',*,*,#372,.F.);
#372 = EDGE_CURVE('',#90,#365,#373,.T.);
#373 = LINE('',#374,#375);
#374 = CARTESIAN_POINT('',(-1.35,-1.75,0.));
#375 = VECTOR('',#376,1.);
#376 = DIRECTION('',(0.,0.,1.));
#377 = PLANE('',#378);
#378 = AXIS2_PLACEMENT_3D('',#379,#380,#381);
#379 = CARTESIAN_POINT('',(-1.55,-1.55,0.));
#380 = DIRECTION('',(-0.707106781187,-0.707106781187,0.));
#381 = DIRECTION('',(-0.,-0.,-1.));
#382 = ADVANCED_FACE('',(#383),#409,.F.);
#383 = FACE_BOUND('',#384,.F.);
#384 = EDGE_LOOP('',(#385,#386,#394,#402,#408));
#385 = ORIENTED_EDGE('',*,*,#129,.F.);
#386 = ORIENTED_EDGE('',*,*,#387,.T.);
#387 = EDGE_CURVE('',#122,#388,#390,.T.);
#388 = VERTEX_POINT('',#389);
#389 = CARTESIAN_POINT('',(1.35,1.75,1.));
#390 = LINE('',#391,#392);
#391 = CARTESIAN_POINT('',(1.35,1.75,0.));
#392 = VECTOR('',#393,1.);
#393 = DIRECTION('',(0.,0.,1.));
#394 = ORIENTED_EDGE('',*,*,#395,.T.);
#395 = EDGE_CURVE('',#388,#396,#398,.T.);
#396 = VERTEX_POINT('',#397);
#397 = CARTESIAN_POINT('',(0.,1.75,1.));
#398 = LINE('',#399,#400);
#399 = CARTESIAN_POINT('',(1.75,1.75,1.));
#400 = VECTOR('',#401,1.);
#401 = DIRECTION('',(-1.,0.,0.));
#402 = ORIENTED_EDGE('',*,*,#403,.T.);
#403 = EDGE_CURVE('',#396,#341,#404,.T.);
#404 = LINE('',#405,#406);
#405 = CARTESIAN_POINT('',(1.75,1.75,1.));
#406 = VECTOR('',#407,1.);
#407 = DIRECTION('',(-1.,0.,0.));
#408 = ORIENTED_EDGE('',*,*,#348,.F.);
#409 = PLANE('',#410);
#410 = AXIS2_PLACEMENT_3D('',#411,#412,#413);
#411 = CARTESIAN_POINT('',(1.75,1.75,0.));
#412 = DIRECTION('',(0.,-1.,0.));
#413 = DIRECTION('',(-1.,0.,0.));
#414 = ADVANCED_FACE('',(#415),#441,.F.);
#415 = FACE_BOUND('',#416,.F.);
#416 = EDGE_LOOP('',(#417,#418,#419,#427,#435));
#417 = ORIENTED_EDGE('',*,*,#97,.F.);
#418 = ORIENTED_EDGE('',*,*,#372,.T.);
#419 = ORIENTED_EDGE('',*,*,#420,.T.);
#420 = EDGE_CURVE('',#365,#421,#423,.T.);
#421 = VERTEX_POINT('',#422);
#422 = CARTESIAN_POINT('',(-1.E-15,-1.75,1.));
#423 = LINE('',#424,#425);
#424 = CARTESIAN_POINT('',(-1.75,-1.75,1.));
#425 = VECTOR('',#426,1.);
#426 = DIRECTION('',(1.,0.,0.));
#427 = ORIENTED_EDGE('',*,*,#428,.T.);
#428 = EDGE_CURVE('',#421,#429,#431,.T.);
#429 = VERTEX_POINT('',#430);
#430 = CARTESIAN_POINT('',(1.35,-1.75,1.));
#431 = LINE('',#432,#433);
#432 = CARTESIAN_POINT('',(-1.75,-1.75,1.));
#433 = VECTOR('',#434,1.);
#434 = DIRECTION('',(1.,0.,0.));
#435 = ORIENTED_EDGE('',*,*,#436,.F.);
#436 = EDGE_CURVE('',#98,#429,#437,.T.);
#437 = LINE('',#438,#439);
#438 = CARTESIAN_POINT('',(1.35,-1.75,0.));
#439 = VECTOR('',#440,1.);
#440 = DIRECTION('',(0.,0.,1.));
#441 = PLANE('',#442);
#442 = AXIS2_PLACEMENT_3D('',#443,#444,#445);
#443 = CARTESIAN_POINT('',(-1.75,-1.75,0.));
#444 = DIRECTION('',(0.,1.,0.));
#445 = DIRECTION('',(1.,0.,0.));
#446 = ADVANCED_FACE('',(#447),#465,.T.);
#447 = FACE_BOUND('',#448,.F.);
#448 = EDGE_LOOP('',(#449,#450,#458,#464));
#449 = ORIENTED_EDGE('',*,*,#121,.F.);
#450 = ORIENTED_EDGE('',*,*,#451,.T.);
#451 = EDGE_CURVE('',#114,#452,#454,.T.);
#452 = VERTEX_POINT('',#453);
#453 = CARTESIAN_POINT('',(1.75,1.35,1.));
#454 = LINE('',#455,#456);
#455 = CARTESIAN_POINT('',(1.75,1.35,0.));
#456 = VECTOR('',#457,1.);
#457 = DIRECTION('',(0.,0.,1.));
#458 = ORIENTED_EDGE('',*,*,#459,.T.);
#459 = EDGE_CURVE('',#452,#388,#460,.T.);
#460 = LINE('',#461,#462);
#461 = CARTESIAN_POINT('',(1.55,1.55,1.));
#462 = VECTOR('',#463,1.);
#463 = DIRECTION('',(-0.707106781187,0.707106781187,0.));
#464 = ORIENTED_EDGE('',*,*,#387,.F.);
#465 = PLANE('',#466);
#466 = AXIS2_PLACEMENT_3D('',#467,#468,#469);
#467 = CARTESIAN_POINT('',(1.55,1.55,0.));
#468 = DIRECTION('',(0.707106781187,0.707106781187,0.));
#469 = DIRECTION('',(0.,0.,-1.));
#470 = ADVANCED_FACE('',(#471),#489,.T.);
#471 = FACE_BOUND('',#472,.F.);
#472 = EDGE_LOOP('',(#473,#474,#475,#483));
#473 = ORIENTED_EDGE('',*,*,#105,.F.);
#474 = ORIENTED_EDGE('',*,*,#436,.T.);
#475 = ORIENTED_EDGE('',*,*,#476,.T.);
#476 = EDGE_CURVE('',#429,#477,#479,.T.);
#477 = VERTEX_POINT('',#478);
#478 = CARTESIAN_POINT('',(1.75,-1.35,1.));
#479 = LINE('',#480,#481);
#480 = CARTESIAN_POINT('',(1.55,-1.55,1.));
#481 = VECTOR('',#482,1.);
#482 = DIRECTION('',(0.707106781187,0.707106781187,0.));
#483 = ORIENTED_EDGE('',*,*,#484,.F.);
#484 = EDGE_CURVE('',#106,#477,#485,.T.);
#485 = LINE('',#486,#487);
#486 = CARTESIAN_POINT('',(1.75,-1.35,0.));
#487 = VECTOR('',#488,1.);
#488 = DIRECTION('',(0.,0.,1.));
#489 = PLANE('',#490);
#490 = AXIS2_PLACEMENT_3D('',#491,#492,#493);
#491 = CARTESIAN_POINT('',(1.55,-1.55,0.));
#492 = DIRECTION('',(0.707106781187,-0.707106781187,0.));
#493 = DIRECTION('',(-0.,-0.,-1.));
#494 = ADVANCED_FACE('',(#495),#514,.F.);
#495 = FACE_BOUND('',#496,.F.);
#496 = EDGE_LOOP('',(#497,#498,#499,#507,#513));
#497 = ORIENTED_EDGE('',*,*,#113,.F.);
#498 = ORIENTED_EDGE('',*,*,#484,.T.);
#499 = ORIENTED_EDGE('',*,*,#500,.T.);
#500 = EDGE_CURVE('',#477,#501,#503,.T.);
#501 = VERTEX_POINT('',#502);
#502 = CARTESIAN_POINT('',(1.75,-5.E-15,1.));
#503 = LINE('',#504,#505);
#504 = CARTESIAN_POINT('',(1.75,-1.75,1.));
#505 = VECTOR('',#506,1.);
#506 = DIRECTION('',(0.,1.,0.));
#507 = ORIENTED_EDGE('',*,*,#508,.T.);
#508 = EDGE_CURVE('',#501,#452,#509,.T.);
#509 = LINE('',#510,#511);
#510 = CARTESIAN_POINT('',(1.75,-1.75,1.));
#511 = VECTOR('',#512,1.);
#512 = DIRECTION('',(0.,1.,0.));
#513 = ORIENTED_EDGE('',*,*,#451,.F.);
#514 = PLANE('',#515);
#515 = AXIS2_PLACEMENT_3D('',#516,#517,#518);
#516 = CARTESIAN_POINT('',(1.75,-1.75,0.));
#517 = DIRECTION('',(-1.,0.,0.));
#518 = DIRECTION('',(0.,1.,0.));
#519 = ADVANCED_FACE('',(#520),#545,.F.);
#520 = FACE_BOUND('',#521,.F.);
#521 = EDGE_LOOP('',(#522,#530,#538,#544));
#522 = ORIENTED_EDGE('',*,*,#523,.T.);
#523 = EDGE_CURVE('',#146,#524,#526,.T.);
#524 = VERTEX_POINT('',#525);
#525 = CARTESIAN_POINT('',(-1.02,-1.52,-3.05));
#526 = LINE('',#527,#528);
#527 = CARTESIAN_POINT('',(-1.02,-1.52,0.));
#528 = VECTOR('',#529,1.);
#529 = DIRECTION('',(0.,0.,-1.));
#530 = ORIENTED_EDGE('',*,*,#531,.T.);
#531 = EDGE_CURVE('',#524,#532,#534,.T.);
#532 = VERTEX_POINT('',#533);
#533 = CARTESIAN_POINT('',(-1.52,-1.52,-3.05));
#534 = LINE('',#535,#536);
#535 = CARTESIAN_POINT('',(-1.02,-1.52,-3.05));
#536 = VECTOR('',#537,1.);
#537 = DIRECTION('',(-1.,0.,0.));
#538 = ORIENTED_EDGE('',*,*,#539,.F.);
#539 = EDGE_CURVE('',#148,#532,#540,.T.);
#540 = LINE('',#541,#542);
#541 = CARTESIAN_POINT('',(-1.52,-1.52,0.));
#542 = VECTOR('',#543,1.);
#543 = DIRECTION('',(0.,0.,-1.));
#544 = ORIENTED_EDGE('',*,*,#145,.F.);
#545 = PLANE('',#546);
#546 = AXIS2_PLACEMENT_3D('',#547,#548,#549);
#547 = CARTESIAN_POINT('',(-1.02,-1.52,0.));
#548 = DIRECTION('',(0.,1.,0.));
#549 = DIRECTION('',(-1.,0.,0.));
#550 = ADVANCED_FACE('',(#551),#569,.F.);
#551 = FACE_BOUND('',#552,.F.);
#552 = EDGE_LOOP('',(#553,#561,#567,#568));
#553 = ORIENTED_EDGE('',*,*,#554,.T.);
#554 = EDGE_CURVE('',#164,#555,#557,.T.);
#555 = VERTEX_POINT('',#556);
#556 = CARTESIAN_POINT('',(-1.02,-1.02,-3.05));
#557 = LINE('',#558,#559);
#558 = CARTESIAN_POINT('',(-1.02,-1.02,0.));
#559 = VECTOR('',#560,1.);
#560 = DIRECTION('',(0.,0.,-1.));
#561 = ORIENTED_EDGE('',*,*,#562,.T.);
#562 = EDGE_CURVE('',#555,#524,#563,.T.);
#563 = LINE('',#564,#565);
#564 = CARTESIAN_POINT('',(-1.02,-1.02,-3.05));
#565 = VECTOR('',#566,1.);
#566 = DIRECTION('',(0.,-1.,0.));
#567 = ORIENTED_EDGE('',*,*,#523,.F.);
#568 = ORIENTED_EDGE('',*,*,#171,.F.);
#569 = PLANE('',#570);
#570 = AXIS2_PLACEMENT_3D('',#571,#572,#573);
#571 = CARTESIAN_POINT('',(-1.02,-1.02,0.));
#572 = DIRECTION('',(-1.,-0.,-0.));
#573 = DIRECTION('',(0.,-1.,0.));
#574 = ADVANCED_FACE('',(#575),#593,.F.);
#575 = FACE_BOUND('',#576,.F.);
#576 = EDGE_LOOP('',(#577,#585,#591,#592));
#577 = ORIENTED_EDGE('',*,*,#578,.T.);
#578 = EDGE_CURVE('',#156,#579,#581,.T.);
#579 = VERTEX_POINT('',#580);
#580 = CARTESIAN_POINT('',(-1.52,-1.02,-3.05));
#581 = LINE('',#582,#583);
#582 = CARTESIAN_POINT('',(-1.52,-1.02,0.));
#583 = VECTOR('',#584,1.);
#584 = DIRECTION('',(0.,0.,-1.));
#585 = ORIENTED_EDGE('',*,*,#586,.T.);
#586 = EDGE_CURVE('',#579,#555,#587,.T.);
#587 = LINE('',#588,#589);
#588 = CARTESIAN_POINT('',(-1.52,-1.02,-3.05));
#589 = VECTOR('',#590,1.);
#590 = DIRECTION('',(1.,0.,0.));
#591 = ORIENTED_EDGE('',*,*,#554,.F.);
#592 = ORIENTED_EDGE('',*,*,#163,.F.);
#593 = PLANE('',#594);
#594 = AXIS2_PLACEMENT_3D('',#595,#596,#597);
#595 = CARTESIAN_POINT('',(-1.52,-1.02,0.));
#596 = DIRECTION('',(0.,-1.,0.));
#597 = DIRECTION('',(1.,0.,0.));
#598 = ADVANCED_FACE('',(#599),#610,.F.);
#599 = FACE_BOUND('',#600,.F.);
#600 = EDGE_LOOP('',(#601,#602,#608,#609));
#601 = ORIENTED_EDGE('',*,*,#539,.T.);
#602 = ORIENTED_EDGE('',*,*,#603,.T.);
#603 = EDGE_CURVE('',#532,#579,#604,.T.);
#604 = LINE('',#605,#606);
#605 = CARTESIAN_POINT('',(-1.52,-1.52,-3.05));
#606 = VECTOR('',#607,1.);
#607 = DIRECTION('',(0.,1.,0.));
#608 = ORIENTED_EDGE('',*,*,#578,.F.);
#609 = ORIENTED_EDGE('',*,*,#155,.F.);
#610 = PLANE('',#611);
#611 = AXIS2_PLACEMENT_3D('',#612,#613,#614);
#612 = CARTESIAN_POINT('',(-1.52,-1.52,0.));
#613 = DIRECTION('',(1.,0.,0.));
#614 = DIRECTION('',(0.,1.,0.));
#615 = ADVANCED_FACE('',(#616),#641,.F.);
#616 = FACE_BOUND('',#617,.F.);
#617 = EDGE_LOOP('',(#618,#626,#634,#640));
#618 = ORIENTED_EDGE('',*,*,#619,.T.);
#619 = EDGE_CURVE('',#180,#620,#622,.T.);
#620 = VERTEX_POINT('',#621);
#621 = CARTESIAN_POINT('',(1.52,-1.52,-3.05));
#622 = LINE('',#623,#624);
#623 = CARTESIAN_POINT('',(1.52,-1.52,0.));
#624 = VECTOR('',#625,1.);
#625 = DIRECTION('',(0.,0.,-1.));
#626 = ORIENTED_EDGE('',*,*,#627,.T.);
#627 = EDGE_CURVE('',#620,#628,#630,.T.);
#628 = VERTEX_POINT('',#629);
#629 = CARTESIAN_POINT('',(1.02,-1.52,-3.05));
#630 = LINE('',#631,#632);
#631 = CARTESIAN_POINT('',(1.52,-1.52,-3.05));
#632 = VECTOR('',#633,1.);
#633 = DIRECTION('',(-1.,0.,0.));
#634 = ORIENTED_EDGE('',*,*,#635,.F.);
#635 = EDGE_CURVE('',#182,#628,#636,.T.);
#636 = LINE('',#637,#638);
#637 = CARTESIAN_POINT('',(1.02,-1.52,0.));
#638 = VECTOR('',#639,1.);
#639 = DIRECTION('',(0.,0.,-1.));
#640 = ORIENTED_EDGE('',*,*,#179,.F.);
#641 = PLANE('',#642);
#642 = AXIS2_PLACEMENT_3D('',#643,#644,#645);
#643 = CARTESIAN_POINT('',(1.52,-1.52,0.));
#644 = DIRECTION('',(0.,1.,0.));
#645 = DIRECTION('',(-1.,0.,0.));
#646 = ADVANCED_FACE('',(#647),#665,.F.);
#647 = FACE_BOUND('',#648,.F.);
#648 = EDGE_LOOP('',(#649,#657,#663,#664));
#649 = ORIENTED_EDGE('',*,*,#650,.T.);
#650 = EDGE_CURVE('',#198,#651,#653,.T.);
#651 = VERTEX_POINT('',#652);
#652 = CARTESIAN_POINT('',(1.52,-1.02,-3.05));
#653 = LINE('',#654,#655);
#654 = CARTESIAN_POINT('',(1.52,-1.02,0.));
#655 = VECTOR('',#656,1.);
#656 = DIRECTION('',(0.,0.,-1.));
#657 = ORIENTED_EDGE('',*,*,#658,.T.);
#658 = EDGE_CURVE('',#651,#620,#659,.T.);
#659 = LINE('',#660,#661);
#660 = CARTESIAN_POINT('',(1.52,-1.02,-3.05));
#661 = VECTOR('',#662,1.);
#662 = DIRECTION('',(0.,-1.,0.));
#663 = ORIENTED_EDGE('',*,*,#619,.F.);
#664 = ORIENTED_EDGE('',*,*,#205,.F.);
#665 = PLANE('',#666);
#666 = AXIS2_PLACEMENT_3D('',#667,#668,#669);
#667 = CARTESIAN_POINT('',(1.52,-1.02,0.));
#668 = DIRECTION('',(-1.,-0.,-0.));
#669 = DIRECTION('',(0.,-1.,0.));
#670 = ADVANCED_FACE('',(#671),#689,.F.);
#671 = FACE_BOUND('',#672,.F.);
#672 = EDGE_LOOP('',(#673,#681,#687,#688));
#673 = ORIENTED_EDGE('',*,*,#674,.T.);
#674 = EDGE_CURVE('',#190,#675,#677,.T.);
#675 = VERTEX_POINT('',#676);
#676 = CARTESIAN_POINT('',(1.02,-1.02,-3.05));
#677 = LINE('',#678,#679);
#678 = CARTESIAN_POINT('',(1.02,-1.02,0.));
#679 = VECTOR('',#680,1.);
#680 = DIRECTION('',(0.,0.,-1.));
#681 = ORIENTED_EDGE('',*,*,#682,.T.);
#682 = EDGE_CURVE('',#675,#651,#683,.T.);
#683 = LINE('',#684,#685);
#684 = CARTESIAN_POINT('',(1.02,-1.02,-3.05));
#685 = VECTOR('',#686,1.);
#686 = DIRECTION('',(1.,0.,0.));
#687 = ORIENTED_EDGE('',*,*,#650,.F.);
#688 = ORIENTED_EDGE('',*,*,#197,.F.);
#689 = PLANE('',#690);
#690 = AXIS2_PLACEMENT_3D('',#691,#692,#693);
#691 = CARTESIAN_POINT('',(1.02,-1.02,0.));
#692 = DIRECTION('',(0.,-1.,0.));
#693 = DIRECTION('',(1.,0.,0.));
#694 = ADVANCED_FACE('',(#695),#706,.F.);
#695 = FACE_BOUND('',#696,.F.);
#696 = EDGE_LOOP('',(#697,#698,#704,#705));
#697 = ORIENTED_EDGE('',*,*,#635,.T.);
#698 = ORIENTED_EDGE('',*,*,#699,.T.);
#699 = EDGE_CURVE('',#628,#675,#700,.T.);
#700 = LINE('',#701,#702);
#701 = CARTESIAN_POINT('',(1.02,-1.52,-3.05));
#702 = VECTOR('',#703,1.);
#703 = DIRECTION('',(0.,1.,0.));
#704 = ORIENTED_EDGE('',*,*,#674,.F.);
#705 = ORIENTED_EDGE('',*,*,#189,.F.);
#706 = PLANE('',#707);
#707 = AXIS2_PLACEMENT_3D('',#708,#709,#710);
#708 = CARTESIAN_POINT('',(1.02,-1.52,0.));
#709 = DIRECTION('',(1.,0.,0.));
#710 = DIRECTION('',(0.,1.,0.));
#711 = ADVANCED_FACE('',(#712),#737,.F.);
#712 = FACE_BOUND('',#713,.F.);
#713 = EDGE_LOOP('',(#714,#722,#730,#736));
#714 = ORIENTED_EDGE('',*,*,#715,.T.);
#715 = EDGE_CURVE('',#214,#716,#718,.T.);
#716 = VERTEX_POINT('',#717);
#717 = CARTESIAN_POINT('',(-1.02,1.02,-3.05));
#718 = LINE('',#719,#720);
#719 = CARTESIAN_POINT('',(-1.02,1.02,0.));
#720 = VECTOR('',#721,1.);
#721 = DIRECTION('',(0.,0.,-1.));
#722 = ORIENTED_EDGE('',*,*,#723,.T.);
#723 = EDGE_CURVE('',#716,#724,#726,.T.);
#724 = VERTEX_POINT('',#725);
#725 = CARTESIAN_POINT('',(-1.52,1.02,-3.05));
#726 = LINE('',#727,#728);
#727 = CARTESIAN_POINT('',(-1.02,1.02,-3.05));
#728 = VECTOR('',#729,1.);
#729 = DIRECTION('',(-1.,0.,0.));
#730 = ORIENTED_EDGE('',*,*,#731,.F.);
#731 = EDGE_CURVE('',#216,#724,#732,.T.);
#732 = LINE('',#733,#734);
#733 = CARTESIAN_POINT('',(-1.52,1.02,0.));
#734 = VECTOR('',#735,1.);
#735 = DIRECTION('',(0.,0.,-1.));
#736 = ORIENTED_EDGE('',*,*,#213,.F.);
#737 = PLANE('',#738);
#738 = AXIS2_PLACEMENT_3D('',#739,#740,#741);
#739 = CARTESIAN_POINT('',(-1.02,1.02,0.));
#740 = DIRECTION('',(0.,1.,0.));
#741 = DIRECTION('',(-1.,0.,0.));
#742 = ADVANCED_FACE('',(#743),#761,.F.);
#743 = FACE_BOUND('',#744,.F.);
#744 = EDGE_LOOP('',(#745,#753,#759,#760));
#745 = ORIENTED_EDGE('',*,*,#746,.T.);
#746 = EDGE_CURVE('',#232,#747,#749,.T.);
#747 = VERTEX_POINT('',#748);
#748 = CARTESIAN_POINT('',(-1.02,1.52,-3.05));
#749 = LINE('',#750,#751);
#750 = CARTESIAN_POINT('',(-1.02,1.52,0.));
#751 = VECTOR('',#752,1.);
#752 = DIRECTION('',(0.,0.,-1.));
#753 = ORIENTED_EDGE('',*,*,#754,.T.);
#754 = EDGE_CURVE('',#747,#716,#755,.T.);
#755 = LINE('',#756,#757);
#756 = CARTESIAN_POINT('',(-1.02,1.52,-3.05));
#757 = VECTOR('',#758,1.);
#758 = DIRECTION('',(0.,-1.,0.));
#759 = ORIENTED_EDGE('',*,*,#715,.F.);
#760 = ORIENTED_EDGE('',*,*,#239,.F.);
#761 = PLANE('',#762);
#762 = AXIS2_PLACEMENT_3D('',#763,#764,#765);
#763 = CARTESIAN_POINT('',(-1.02,1.52,0.));
#764 = DIRECTION('',(-1.,-0.,-0.));
#765 = DIRECTION('',(0.,-1.,0.));
#766 = ADVANCED_FACE('',(#767),#785,.F.);
#767 = FACE_BOUND('',#768,.F.);
#768 = EDGE_LOOP('',(#769,#777,#783,#784));
#769 = ORIENTED_EDGE('',*,*,#770,.T.);
#770 = EDGE_CURVE('',#224,#771,#773,.T.);
#771 = VERTEX_POINT('',#772);
#772 = CARTESIAN_POINT('',(-1.52,1.52,-3.05));
#773 = LINE('',#774,#775);
#774 = CARTESIAN_POINT('',(-1.52,1.52,0.));
#775 = VECTOR('',#776,1.);
#776 = DIRECTION('',(0.,0.,-1.));
#777 = ORIENTED_EDGE('',*,*,#778,.T.);
#778 = EDGE_CURVE('',#771,#747,#779,.T.);
#779 = LINE('',#780,#781);
#780 = CARTESIAN_POINT('',(-1.52,1.52,-3.05));
#781 = VECTOR('',#782,1.);
#782 = DIRECTION('',(1.,0.,0.));
#783 = ORIENTED_EDGE('',*,*,#746,.F.);
#784 = ORIENTED_EDGE('',*,*,#231,.F.);
#785 = PLANE('',#786);
#786 = AXIS2_PLACEMENT_3D('',#787,#788,#789);
#787 = CARTESIAN_POINT('',(-1.52,1.52,0.));
#788 = DIRECTION('',(0.,-1.,0.));
#789 = DIRECTION('',(1.,0.,0.));
#790 = ADVANCED_FACE('',(#791),#802,.F.);
#791 = FACE_BOUND('',#792,.F.);
#792 = EDGE_LOOP('',(#793,#794,#800,#801));
#793 = ORIENTED_EDGE('',*,*,#731,.T.);
#794 = ORIENTED_EDGE('',*,*,#795,.T.);
#795 = EDGE_CURVE('',#724,#771,#796,.T.);
#796 = LINE('',#797,#798);
#797 = CARTESIAN_POINT('',(-1.52,1.02,-3.05));
#798 = VECTOR('',#799,1.);
#799 = DIRECTION('',(0.,1.,0.));
#800 = ORIENTED_EDGE('',*,*,#770,.F.);
#801 = ORIENTED_EDGE('',*,*,#223,.F.);
#802 = PLANE('',#803);
#803 = AXIS2_PLACEMENT_3D('',#804,#805,#806);
#804 = CARTESIAN_POINT('',(-1.52,1.02,0.));
#805 = DIRECTION('',(1.,0.,0.));
#806 = DIRECTION('',(0.,1.,0.));
#807 = ADVANCED_FACE('',(#808),#833,.F.);
#808 = FACE_BOUND('',#809,.F.);
#809 = EDGE_LOOP('',(#810,#818,#826,#832));
#810 = ORIENTED_EDGE('',*,*,#811,.T.);
#811 = EDGE_CURVE('',#251,#812,#814,.T.);
#812 = VERTEX_POINT('',#813);
#813 = CARTESIAN_POINT('',(1.52,1.52,-3.05));
#814 = LINE('',#815,#816);
#815 = CARTESIAN_POINT('',(1.52,1.52,0.));
#816 = VECTOR('',#817,1.);
#817 = DIRECTION('',(0.,0.,-1.));
#818 = ORIENTED_EDGE('',*,*,#819,.T.);
#819 = EDGE_CURVE('',#812,#820,#822,.T.);
#820 = VERTEX_POINT('',#821);
#821 = CARTESIAN_POINT('',(1.52,1.02,-3.05));
#822 = LINE('',#823,#824);
#823 = CARTESIAN_POINT('',(1.52,1.52,-3.05));
#824 = VECTOR('',#825,1.);
#825 = DIRECTION('',(0.,-1.,0.));
#826 = ORIENTED_EDGE('',*,*,#827,.F.);
#827 = EDGE_CURVE('',#253,#820,#828,.T.);
#828 = LINE('',#829,#830);
#829 = CARTESIAN_POINT('',(1.52,1.02,0.));
#830 = VECTOR('',#831,1.);
#831 = DIRECTION('',(0.,0.,-1.));
#832 = ORIENTED_EDGE('',*,*,#250,.F.);
#833 = PLANE('',#834);
#834 = AXIS2_PLACEMENT_3D('',#835,#836,#837);
#835 = CARTESIAN_POINT('',(1.52,1.52,0.));
#836 = DIRECTION('',(-1.,-0.,-0.));
#837 = DIRECTION('',(0.,-1.,0.));
#838 = ADVANCED_FACE('',(#839),#857,.F.);
#839 = FACE_BOUND('',#840,.F.);
#840 = EDGE_LOOP('',(#841,#849,#855,#856));
#841 = ORIENTED_EDGE('',*,*,#842,.T.);
#842 = EDGE_CURVE('',#269,#843,#845,.T.);
#843 = VERTEX_POINT('',#844);
#844 = CARTESIAN_POINT('',(1.02,1.52,-3.05));
#845 = LINE('',#846,#847);
#846 = CARTESIAN_POINT('',(1.02,1.52,0.));
#847 = VECTOR('',#848,1.);
#848 = DIRECTION('',(0.,0.,-1.));
#849 = ORIENTED_EDGE('',*,*,#850,.T.);
#850 = EDGE_CURVE('',#843,#812,#851,.T.);
#851 = LINE('',#852,#853);
#852 = CARTESIAN_POINT('',(1.02,1.52,-3.05));
#853 = VECTOR('',#854,1.);
#854 = DIRECTION('',(1.,0.,0.));
#855 = ORIENTED_EDGE('',*,*,#811,.F.);
#856 = ORIENTED_EDGE('',*,*,#276,.F.);
#857 = PLANE('',#858);
#858 = AXIS2_PLACEMENT_3D('',#859,#860,#861);
#859 = CARTESIAN_POINT('',(1.02,1.52,0.));
#860 = DIRECTION('',(0.,-1.,0.));
#861 = DIRECTION('',(1.,0.,0.));
#862 = ADVANCED_FACE('',(#863),#881,.F.);
#863 = FACE_BOUND('',#864,.F.);
#864 = EDGE_LOOP('',(#865,#873,#879,#880));
#865 = ORIENTED_EDGE('',*,*,#866,.T.);
#866 = EDGE_CURVE('',#261,#867,#869,.T.);
#867 = VERTEX_POINT('',#868);
#868 = CARTESIAN_POINT('',(1.02,1.02,-3.05));
#869 = LINE('',#870,#871);
#870 = CARTESIAN_POINT('',(1.02,1.02,0.));
#871 = VECTOR('',#872,1.);
#872 = DIRECTION('',(0.,0.,-1.));
#873 = ORIENTED_EDGE('',*,*,#874,.T.);
#874 = EDGE_CURVE('',#867,#843,#875,.T.);
#875 = LINE('',#876,#877);
#876 = CARTESIAN_POINT('',(1.02,1.02,-3.05));
#877 = VECTOR('',#878,1.);
#878 = DIRECTION('',(0.,1.,0.));
#879 = ORIENTED_EDGE('',*,*,#842,.F.);
#880 = ORIENTED_EDGE('',*,*,#268,.F.);
#881 = PLANE('',#882);
#882 = AXIS2_PLACEMENT_3D('',#883,#884,#885);
#883 = CARTESIAN_POINT('',(1.02,1.02,0.));
#884 = DIRECTION('',(1.,0.,0.));
#885 = DIRECTION('',(0.,1.,0.));
#886 = ADVANCED_FACE('',(#887),#898,.F.);
#887 = FACE_BOUND('',#888,.F.);
#888 = EDGE_LOOP('',(#889,#890,#896,#897));
#889 = ORIENTED_EDGE('',*,*,#827,.T.);
#890 = ORIENTED_EDGE('',*,*,#891,.T.);
#891 = EDGE_CURVE('',#820,#867,#892,.T.);
#892 = LINE('',#893,#894);
#893 = CARTESIAN_POINT('',(1.52,1.02,-3.05));
#894 = VECTOR('',#895,1.);
#895 = DIRECTION('',(-1.,0.,0.));
#896 = ORIENTED_EDGE('',*,*,#866,.F.);
#897 = ORIENTED_EDGE('',*,*,#260,.F.);
#898 = PLANE('',#899);
#899 = AXIS2_PLACEMENT_3D('',#900,#901,#902);
#900 = CARTESIAN_POINT('',(1.52,1.02,0.));
#901 = DIRECTION('',(0.,1.,0.));
#902 = DIRECTION('',(-1.,0.,0.));
#903 = ADVANCED_FACE('',(#904),#916,.T.);
#904 = FACE_BOUND('',#905,.T.);
#905 = EDGE_LOOP('',(#906,#907,#908,#915));
#906 = ORIENTED_EDGE('',*,*,#340,.F.);
#907 = ORIENTED_EDGE('',*,*,#308,.T.);
#908 = ORIENTED_EDGE('',*,*,#909,.T.);
#909 = EDGE_CURVE('',#309,#396,#910,.T.);
#910 = CIRCLE('',#911,1.75);
#911 = AXIS2_PLACEMENT_3D('',#912,#913,#914);
#912 = CARTESIAN_POINT('',(0.,0.,1.));
#913 = DIRECTION('',(0.,0.,-1.));
#914 = DIRECTION('',(0.,1.,0.));
#915 = ORIENTED_EDGE('',*,*,#403,.T.);
#916 = PLANE('',#917);
#917 = AXIS2_PLACEMENT_3D('',#918,#919,#920);
#918 = CARTESIAN_POINT('',(0.,0.,1.));
#919 = DIRECTION('',(0.,0.,1.));
#920 = DIRECTION('',(1.,0.,0.));
#921 = ADVANCED_FACE('',(#922),#934,.T.);
#922 = FACE_BOUND('',#923,.T.);
#923 = EDGE_LOOP('',(#924,#931,#932,#933));
#924 = ORIENTED_EDGE('',*,*,#925,.T.);
#925 = EDGE_CURVE('',#421,#309,#926,.T.);
#926 = CIRCLE('',#927,1.75);
#927 = AXIS2_PLACEMENT_3D('',#928,#929,#930);
#928 = CARTESIAN_POINT('',(0.,0.,1.));
#929 = DIRECTION('',(0.,0.,-1.));
#930 = DIRECTION('',(0.,1.,0.));
#931 = ORIENTED_EDGE('',*,*,#316,.T.);
#932 = ORIENTED_EDGE('',*,*,#364,.T.);
#933 = ORIENTED_EDGE('',*,*,#420,.T.);
#934 = PLANE('',#935);
#935 = AXIS2_PLACEMENT_3D('',#936,#937,#938);
#936 = CARTESIAN_POINT('',(0.,0.,1.));
#937 = DIRECTION('',(0.,0.,1.));
#938 = DIRECTION('',(1.,0.,0.));
#939 = ADVANCED_FACE('',(#940),#952,.T.);
#940 = FACE_BOUND('',#941,.T.);
#941 = EDGE_LOOP('',(#942,#943,#950,#951));
#942 = ORIENTED_EDGE('',*,*,#395,.T.);
#943 = ORIENTED_EDGE('',*,*,#944,.T.);
#944 = EDGE_CURVE('',#396,#501,#945,.T.);
#945 = CIRCLE('',#946,1.75);
#946 = AXIS2_PLACEMENT_3D('',#947,#948,#949);
#947 = CARTESIAN_POINT('',(0.,0.,1.));
#948 = DIRECTION('',(0.,0.,-1.));
#949 = DIRECTION('',(0.,1.,0.));
#950 = ORIENTED_EDGE('',*,*,#508,.T.);
#951 = ORIENTED_EDGE('',*,*,#459,.T.);
#952 = PLANE('',#953);
#953 = AXIS2_PLACEMENT_3D('',#954,#955,#956);
#954 = CARTESIAN_POINT('',(0.,0.,1.));
#955 = DIRECTION('',(0.,0.,1.));
#956 = DIRECTION('',(1.,0.,0.));
#957 = ADVANCED_FACE('',(#958),#970,.T.);
#958 = FACE_BOUND('',#959,.T.);
#959 = EDGE_LOOP('',(#960,#967,#968,#969));
#960 = ORIENTED_EDGE('',*,*,#961,.T.);
#961 = EDGE_CURVE('',#501,#421,#962,.T.);
#962 = CIRCLE('',#963,1.75);
#963 = AXIS2_PLACEMENT_3D('',#964,#965,#966);
#964 = CARTESIAN_POINT('',(0.,0.,1.));
#965 = DIRECTION('',(0.,0.,-1.));
#966 = DIRECTION('',(0.,1.,0.));
#967 = ORIENTED_EDGE('',*,*,#428,.T.);
#968 = ORIENTED_EDGE('',*,*,#476,.T.);
#969 = ORIENTED_EDGE('',*,*,#500,.T.);
#970 = PLANE('',#971);
#971 = AXIS2_PLACEMENT_3D('',#972,#973,#974);
#972 = CARTESIAN_POINT('',(0.,0.,1.));
#973 = DIRECTION('',(0.,0.,1.));
#974 = DIRECTION('',(1.,0.,0.));
#975 = ADVANCED_FACE('',(#976),#982,.F.);
#976 = FACE_BOUND('',#977,.T.);
#977 = EDGE_LOOP('',(#978,#979,#980,#981));
#978 = ORIENTED_EDGE('',*,*,#603,.T.);
#979 = ORIENTED_EDGE('',*,*,#586,.T.);
#980 = ORIENTED_EDGE('',*,*,#562,.T.);
#981 = ORIENTED_EDGE('',*,*,#531,.T.);
#982 = PLANE('',#983);
#983 = AXIS2_PLACEMENT_3D('',#984,#985,#986);
#984 = CARTESIAN_POINT('',(4.E-17,-5.E-17,-3.05));
#985 = DIRECTION('',(0.,0.,1.));
#986 = DIRECTION('',(1.,0.,0.));
#987 = ADVANCED_FACE('',(#988),#994,.F.);
#988 = FACE_BOUND('',#989,.T.);
#989 = EDGE_LOOP('',(#990,#991,#992,#993));
#990 = ORIENTED_EDGE('',*,*,#699,.T.);
#991 = ORIENTED_EDGE('',*,*,#682,.T.);
#992 = ORIENTED_EDGE('',*,*,#658,.T.);
#993 = ORIENTED_EDGE('',*,*,#627,.T.);
#994 = PLANE('',#995);
#995 = AXIS2_PLACEMENT_3D('',#996,#997,#998);
#996 = CARTESIAN_POINT('',(4.E-17,-5.E-17,-3.05));
#997 = DIRECTION('',(0.,0.,1.));
#998 = DIRECTION('',(1.,0.,0.));
#999 = ADVANCED_FACE('',(#1000),#1006,.F.);
#1000 = FACE_BOUND('',#1001,.T.);
#1001 = EDGE_LOOP('',(#1002,#1003,#1004,#1005));
#1002 = ORIENTED_EDGE('',*,*,#795,.T.);
#1003 = ORIENTED_EDGE('',*,*,#778,.T.);
#1004 = ORIENTED_EDGE('',*,*,#754,.T.);
#1005 = ORIENTED_EDGE('',*,*,#723,.T.);
#1006 = PLANE('',#1007);
#1007 = AXIS2_PLACEMENT_3D('',#1008,#1009,#1010);
#1008 = CARTESIAN_POINT('',(4.E-17,-5.E-17,-3.05));
#1009 = DIRECTION('',(0.,0.,1.));
#1010 = DIRECTION('',(1.,0.,0.));
#1011 = ADVANCED_FACE('',(#1012),#1018,.F.);
#1012 = FACE_BOUND('',#1013,.T.);
#1013 = EDGE_LOOP('',(#1014,#1015,#1016,#1017));
#1014 = ORIENTED_EDGE('',*,*,#891,.T.);
#1015 = ORIENTED_EDGE('',*,*,#874,.T.);
#1016 = ORIENTED_EDGE('',*,*,#850,.T.);
#1017 = ORIENTED_EDGE('',*,*,#819,.T.);
#1018 = PLANE('',#1019);
#1019 = AXIS2_PLACEMENT_3D('',#1020,#1021,#1022);
#1020 = CARTESIAN_POINT('',(4.E-17,-5.E-17,-3.05));
#1021 = DIRECTION('',(0.,0.,1.));
#1022 = DIRECTION('',(1.,0.,0.));
#1023 = ADVANCED_FACE('',(#1024),#1046,.T.);
#1024 = FACE_BOUND('',#1025,.F.);
#1025 = EDGE_LOOP('',(#1026,#1034,#1035,#1036,#1037,#1038,#1039));
#1026 = ORIENTED_EDGE('',*,*,#1027,.F.);
#1027 = EDGE_CURVE('',#396,#1028,#1030,.T.);
#1028 = VERTEX_POINT('',#1029);
#1029 = CARTESIAN_POINT('',(0.,1.75,4.25));
#1030 = LINE('',#1031,#1032);
#1031 = CARTESIAN_POINT('',(0.,1.75,1.));
#1032 = VECTOR('',#1033,1.);
#1033 = DIRECTION('',(0.,0.,1.));
#1034 = ORIENTED_EDGE('',*,*,#944,.T.);
#1035 = ORIENTED_EDGE('',*,*,#961,.T.);
#1036 = ORIENTED_EDGE('',*,*,#925,.T.);
#1037 = ORIENTED_EDGE('',*,*,#909,.T.);
#1038 = ORIENTED_EDGE('',*,*,#1027,.T.);
#1039 = ORIENTED_EDGE('',*,*,#1040,.F.);
#1040 = EDGE_CURVE('',#1028,#1028,#1041,.T.);
#1041 = CIRCLE('',#1042,1.75);
#1042 = AXIS2_PLACEMENT_3D('',#1043,#1044,#1045);
#1043 = CARTESIAN_POINT('',(0.,0.,4.25));
#1044 = DIRECTION('',(0.,0.,-1.));
#1045 = DIRECTION('',(0.,1.,0.));
#1046 = CYLINDRICAL_SURFACE('',#1047,1.75);
#1047 = AXIS2_PLACEMENT_3D('',#1048,#1049,#1050);
#1048 = CARTESIAN_POINT('',(0.,0.,1.));
#1049 = DIRECTION('',(0.,0.,1.));
#1050 = DIRECTION('',(0.,1.,0.));
#1051 = ADVANCED_FACE('',(#1052),#1071,.T.);
#1052 = FACE_BOUND('',#1053,.F.);
#1053 = EDGE_LOOP('',(#1054,#1055,#1063,#1070));
#1054 = ORIENTED_EDGE('',*,*,#1040,.T.);
#1055 = ORIENTED_EDGE('',*,*,#1056,.T.);
#1056 = EDGE_CURVE('',#1028,#1057,#1059,.T.);
#1057 = VERTEX_POINT('',#1058);
#1058 = CARTESIAN_POINT('',(0.,1.65,4.35));
#1059 = LINE('',#1060,#1061);
#1060 = CARTESIAN_POINT('',(0.,1.75,4.25));
#1061 = VECTOR('',#1062,1.);
#1062 = DIRECTION('',(0.,-0.707106781187,0.707106781187));
#1063 = ORIENTED_EDGE('',*,*,#1064,.F.);
#1064 = EDGE_CURVE('',#1057,#1057,#1065,.T.);
#1065 = CIRCLE('',#1066,1.65);
#1066 = AXIS2_PLACEMENT_3D('',#1067,#1068,#1069);
#1067 = CARTESIAN_POINT('',(0.,0.,4.35));
#1068 = DIRECTION('',(0.,0.,-1.));
#1069 = DIRECTION('',(0.,1.,0.));
#1070 = ORIENTED_EDGE('',*,*,#1056,.F.);
#1071 = CONICAL_SURFACE('',#1072,1.75,0.785398163397);
#1072 = AXIS2_PLACEMENT_3D('',#1073,#1074,#1075);
#1073 = CARTESIAN_POINT('',(0.,0.,4.25));
#1074 = DIRECTION('',(-0.,-0.,-1.));
#1075 = DIRECTION('',(0.,1.,0.));
#1076 = ADVANCED_FACE('',(#1077,#1080),#1091,.F.);
#1077 = FACE_BOUND('',#1078,.F.);
#1078 = EDGE_LOOP('',(#1079));
#1079 = ORIENTED_EDGE('',*,*,#1064,.T.);
#1080 = FACE_BOUND('',#1081,.F.);
#1081 = EDGE_LOOP('',(#1082));
#1082 = ORIENTED_EDGE('',*,*,#1083,.F.);
#1083 = EDGE_CURVE('',#1084,#1084,#1086,.T.);
#1084 = VERTEX_POINT('',#1085);
#1085 = CARTESIAN_POINT('',(0.,1.57,4.35));
#1086 = CIRCLE('',#1087,1.57);
#1087 = AXIS2_PLACEMENT_3D('',#1088,#1089,#1090);
#1088 = CARTESIAN_POINT('',(0.,0.,4.35));
#1089 = DIRECTION('',(0.,0.,-1.));
#1090 = DIRECTION('',(0.,1.,0.));
#1091 = PLANE('',#1092);
#1092 = AXIS2_PLACEMENT_3D('',#1093,#1094,#1095);
#1093 = CARTESIAN_POINT('',(0.,0.,4.35));
#1094 = DIRECTION('',(-0.,-0.,-1.));
#1095 = DIRECTION('',(0.,1.,0.));
#1096 = ADVANCED_FACE('',(#1097),#1116,.F.);
#1097 = FACE_BOUND('',#1098,.F.);
#1098 = EDGE_LOOP('',(#1099,#1100,#1108,#1115));
#1099 = ORIENTED_EDGE('',*,*,#1083,.T.);
#1100 = ORIENTED_EDGE('',*,*,#1101,.T.);
#1101 = EDGE_CURVE('',#1084,#1102,#1104,.T.);
#1102 = VERTEX_POINT('',#1103);
#1103 = CARTESIAN_POINT('',(0.,1.45,4.23));
#1104 = LINE('',#1105,#1106);
#1105 = CARTESIAN_POINT('',(0.,1.57,4.35));
#1106 = VECTOR('',#1107,1.);
#1107 = DIRECTION('',(0.,-0.707106781187,-0.707106781187));
#1108 = ORIENTED_EDGE('',*,*,#1109,.F.);
#1109 = EDGE_CURVE('',#1102,#1102,#1110,.T.);
#1110 = CIRCLE('',#1111,1.45);
#1111 = AXIS2_PLACEMENT_3D('',#1112,#1113,#1114);
#1112 = CARTESIAN_POINT('',(0.,0.,4.23));
#1113 = DIRECTION('',(0.,0.,-1.));
#1114 = DIRECTION('',(0.,1.,0.));
#1115 = ORIENTED_EDGE('',*,*,#1101,.F.);
#1116 = CONICAL_SURFACE('',#1117,1.57,0.785398163397);
#1117 = AXIS2_PLACEMENT_3D('',#1118,#1119,#1120);
#1118 = CARTESIAN_POINT('',(0.,0.,4.35));
#1119 = DIRECTION('',(0.,0.,1.));
#1120 = DIRECTION('',(0.,1.,0.));
#1121 = ADVANCED_FACE('',(#1122),#1141,.F.);
#1122 = FACE_BOUND('',#1123,.F.);
#1123 = EDGE_LOOP('',(#1124,#1125,#1133,#1140));
#1124 = ORIENTED_EDGE('',*,*,#1109,.T.);
#1125 = ORIENTED_EDGE('',*,*,#1126,.T.);
#1126 = EDGE_CURVE('',#1102,#1127,#1129,.T.);
#1127 = VERTEX_POINT('',#1128);
#1128 = CARTESIAN_POINT('',(0.,1.45,3.97));
#1129 = LINE('',#1130,#1131);
#1130 = CARTESIAN_POINT('',(0.,1.45,4.23));
#1131 = VECTOR('',#1132,1.);
#1132 = DIRECTION('',(0.,0.,-1.));
#1133 = ORIENTED_EDGE('',*,*,#1134,.F.);
#1134 = EDGE_CURVE('',#1127,#1127,#1135,.T.);
#1135 = CIRCLE('',#1136,1.45);
#1136 = AXIS2_PLACEMENT_3D('',#1137,#1138,#1139);
#1137 = CARTESIAN_POINT('',(0.,0.,3.97));
#1138 = DIRECTION('',(0.,0.,-1.));
#1139 = DIRECTION('',(0.,1.,0.));
#1140 = ORIENTED_EDGE('',*,*,#1126,.F.);
#1141 = CYLINDRICAL_SURFACE('',#1142,1.45);
#1142 = AXIS2_PLACEMENT_3D('',#1143,#1144,#1145);
#1143 = CARTESIAN_POINT('',(0.,0.,4.23));
#1144 = DIRECTION('',(-0.,-0.,-1.));
#1145 = DIRECTION('',(0.,1.,0.));
#1146 = ADVANCED_FACE('',(#1147),#1166,.F.);
#1147 = FACE_BOUND('',#1148,.F.);
#1148 = EDGE_LOOP('',(#1149,#1150,#1158,#1165));
#1149 = ORIENTED_EDGE('',*,*,#1134,.T.);
#1150 = ORIENTED_EDGE('',*,*,#1151,.T.);
#1151 = EDGE_CURVE('',#1127,#1152,#1154,.T.);
#1152 = VERTEX_POINT('',#1153);
#1153 = CARTESIAN_POINT('',(0.,1.51,3.746076951546));
#1154 = LINE('',#1155,#1156);
#1155 = CARTESIAN_POINT('',(0.,1.45,3.97));
#1156 = VECTOR('',#1157,1.);
#1157 = DIRECTION('',(0.,0.258819045103,-0.965925826289));
#1158 = ORIENTED_EDGE('',*,*,#1159,.F.);
#1159 = EDGE_CURVE('',#1152,#1152,#1160,.T.);
#1160 = CIRCLE('',#1161,1.51);
#1161 = AXIS2_PLACEMENT_3D('',#1162,#1163,#1164);
#1162 = CARTESIAN_POINT('',(0.,0.,3.746076951546));
#1163 = DIRECTION('',(0.,0.,-1.));
#1164 = DIRECTION('',(0.,1.,0.));
#1165 = ORIENTED_EDGE('',*,*,#1151,.F.);
#1166 = CONICAL_SURFACE('',#1167,1.45,0.261799387799);
#1167 = AXIS2_PLACEMENT_3D('',#1168,#1169,#1170);
#1168 = CARTESIAN_POINT('',(0.,0.,3.97));
#1169 = DIRECTION('',(-0.,-0.,-1.));
#1170 = DIRECTION('',(0.,1.,0.));
#1171 = ADVANCED_FACE('',(#1172),#1191,.F.);
#1172 = FACE_BOUND('',#1173,.F.);
#1173 = EDGE_LOOP('',(#1174,#1175,#1183,#1190));
#1174 = ORIENTED_EDGE('',*,*,#1159,.T.);
#1175 = ORIENTED_EDGE('',*,*,#1176,.T.);
#1176 = EDGE_CURVE('',#1152,#1177,#1179,.T.);
#1177 = VERTEX_POINT('',#1178);
#1178 = CARTESIAN_POINT('',(0.,1.51,3.426091832103));
#1179 = LINE('',#1180,#1181);
#1180 = CARTESIAN_POINT('',(0.,1.51,3.746076951546));
#1181 = VECTOR('',#1182,1.);
#1182 = DIRECTION('',(0.,0.,-1.));
#1183 = ORIENTED_EDGE('',*,*,#1184,.F.);
#1184 = EDGE_CURVE('',#1177,#1177,#1185,.T.);
#1185 = CIRCLE('',#1186,1.51);
#1186 = AXIS2_PLACEMENT_3D('',#1187,#1188,#1189);
#1187 = CARTESIAN_POINT('',(0.,0.,3.426091832103));
#1188 = DIRECTION('',(0.,0.,-1.));
#1189 = DIRECTION('',(0.,1.,0.));
#1190 = ORIENTED_EDGE('',*,*,#1176,.F.);
#1191 = CYLINDRICAL_SURFACE('',#1192,1.51);
#1192 = AXIS2_PLACEMENT_3D('',#1193,#1194,#1195);
#1193 = CARTESIAN_POINT('',(0.,0.,3.746076951546));
#1194 = DIRECTION('',(-0.,-0.,-1.));
#1195 = DIRECTION('',(0.,1.,0.));
#1196 = ADVANCED_FACE('',(#1197),#1216,.F.);
#1197 = FACE_BOUND('',#1198,.F.);
#1198 = EDGE_LOOP('',(#1199,#1200,#1208,#1215));
#1199 = ORIENTED_EDGE('',*,*,#1184,.T.);
#1200 = ORIENTED_EDGE('',*,*,#1201,.T.);
#1201 = EDGE_CURVE('',#1177,#1202,#1204,.T.);
#1202 = VERTEX_POINT('',#1203);
#1203 = CARTESIAN_POINT('',(0.,1.205,3.25));
#1204 = LINE('',#1205,#1206);
#1205 = CARTESIAN_POINT('',(0.,1.51,3.426091832103));
#1206 = VECTOR('',#1207,1.);
#1207 = DIRECTION('',(0.,-0.866025403784,-0.5));
#1208 = ORIENTED_EDGE('',*,*,#1209,.F.);
#1209 = EDGE_CURVE('',#1202,#1202,#1210,.T.);
#1210 = CIRCLE('',#1211,1.205);
#1211 = AXIS2_PLACEMENT_3D('',#1212,#1213,#1214);
#1212 = CARTESIAN_POINT('',(0.,0.,3.25));
#1213 = DIRECTION('',(0.,0.,-1.));
#1214 = DIRECTION('',(0.,1.,0.));
#1215 = ORIENTED_EDGE('',*,*,#1201,.F.);
#1216 = CONICAL_SURFACE('',#1217,1.51,1.047197551197);
#1217 = AXIS2_PLACEMENT_3D('',#1218,#1219,#1220);
#1218 = CARTESIAN_POINT('',(0.,0.,3.426091832103));
#1219 = DIRECTION('',(0.,0.,1.));
#1220 = DIRECTION('',(0.,1.,0.));
#1221 = ADVANCED_FACE('',(#1222),#1241,.F.);
#1222 = FACE_BOUND('',#1223,.F.);
#1223 = EDGE_LOOP('',(#1224,#1225,#1233,#1240));
#1224 = ORIENTED_EDGE('',*,*,#1209,.T.);
#1225 = ORIENTED_EDGE('',*,*,#1226,.T.);
#1226 = EDGE_CURVE('',#1202,#1227,#1229,.T.);
#1227 = VERTEX_POINT('',#1228);
#1228 = CARTESIAN_POINT('',(0.,1.205,1.65));
#1229 = LINE('',#1230,#1231);
#1230 = CARTESIAN_POINT('',(0.,1.205,3.25));
#1231 = VECTOR('',#1232,1.);
#1232 = DIRECTION('',(0.,0.,-1.));
#1233 = ORIENTED_EDGE('',*,*,#1234,.F.);
#1234 = EDGE_CURVE('',#1227,#1227,#1235,.T.);
#1235 = CIRCLE('',#1236,1.205);
#1236 = AXIS2_PLACEMENT_3D('',#1237,#1238,#1239);
#1237 = CARTESIAN_POINT('',(0.,0.,1.65));
#1238 = DIRECTION('',(0.,0.,-1.));
#1239 = DIRECTION('',(0.,1.,0.));
#1240 = ORIENTED_EDGE('',*,*,#1226,.F.);
#1241 = CYLINDRICAL_SURFACE('',#1242,1.205);
#1242 = AXIS2_PLACEMENT_3D('',#1243,#1244,#1245);
#1243 = CARTESIAN_POINT('',(0.,0.,3.25));
#1244 = DIRECTION('',(-0.,-0.,-1.));
#1245 = DIRECTION('',(0.,1.,0.));
#1246 = ADVANCED_FACE('',(#1247,#1250),#1261,.F.);
#1247 = FACE_BOUND('',#1248,.F.);
#1248 = EDGE_LOOP('',(#1249));
#1249 = ORIENTED_EDGE('',*,*,#1234,.T.);
#1250 = FACE_BOUND('',#1251,.F.);
#1251 = EDGE_LOOP('',(#1252));
#1252 = ORIENTED_EDGE('',*,*,#1253,.F.);
#1253 = EDGE_CURVE('',#1254,#1254,#1256,.T.);
#1254 = VERTEX_POINT('',#1255);
#1255 = CARTESIAN_POINT('',(0.,0.35,1.65));
#1256 = CIRCLE('',#1257,0.35);
#1257 = AXIS2_PLACEMENT_3D('',#1258,#1259,#1260);
#1258 = CARTESIAN_POINT('',(0.,0.,1.65));
#1259 = DIRECTION('',(0.,0.,-1.));
#1260 = DIRECTION('',(0.,1.,0.));
#1261 = PLANE('',#1262);
#1262 = AXIS2_PLACEMENT_3D('',#1263,#1264,#1265);
#1263 = CARTESIAN_POINT('',(0.,0.,1.65));
#1264 = DIRECTION('',(-0.,-0.,-1.));
#1265 = DIRECTION('',(0.,1.,0.));
#1266 = ADVANCED_FACE('',(#1267),#1286,.T.);
#1267 = FACE_BOUND('',#1268,.T.);
#1268 = EDGE_LOOP('',(#1269,#1278,#1284,#1285));
#1269 = ORIENTED_EDGE('',*,*,#1270,.T.);
#1270 = EDGE_CURVE('',#1271,#1271,#1273,.T.);
#1271 = VERTEX_POINT('',#1272);
#1272 = CARTESIAN_POINT('',(0.,0.229130129444,2.8));
#1273 = CIRCLE('',#1274,0.229130129444);
#1274 = AXIS2_PLACEMENT_3D('',#1275,#1276,#1277);
#1275 = CARTESIAN_POINT('',(0.,0.,2.8));
#1276 = DIRECTION('',(0.,0.,-1.));
#1277 = DIRECTION('',(0.,1.,0.));
#1278 = ORIENTED_EDGE('',*,*,#1279,.T.);
#1279 = EDGE_CURVE('',#1271,#1254,#1280,.T.);
#1280 = LINE('',#1281,#1282);
#1281 = CARTESIAN_POINT('',(0.,0.229130129444,2.8));
#1282 = VECTOR('',#1283,1.);
#1283 = DIRECTION('',(0.,0.104528463268,-0.994521895368));
#1284 = ORIENTED_EDGE('',*,*,#1253,.F.);
#1285 = ORIENTED_EDGE('',*,*,#1279,.F.);
#1286 = CONICAL_SURFACE('',#1287,0.229130129444,0.10471975512);
#1287 = AXIS2_PLACEMENT_3D('',#1288,#1289,#1290);
#1288 = CARTESIAN_POINT('',(0.,0.,2.8));
#1289 = DIRECTION('',(-0.,-0.,-1.));
#1290 = DIRECTION('',(0.,1.,0.));
#1291 = ADVANCED_FACE('',(#1292,#1303),#1306,.F.);
#1292 = FACE_BOUND('',#1293,.T.);
#1293 = EDGE_LOOP('',(#1294));
#1294 = ORIENTED_EDGE('',*,*,#1295,.T.);
#1295 = EDGE_CURVE('',#1296,#1296,#1298,.T.);
#1296 = VERTEX_POINT('',#1297);
#1297 = CARTESIAN_POINT('',(0.,0.214130129444,2.8));
#1298 = CIRCLE('',#1299,0.214130129444);
#1299 = AXIS2_PLACEMENT_3D('',#1300,#1301,#1302);
#1300 = CARTESIAN_POINT('',(0.,0.,2.8));
#1301 = DIRECTION('',(0.,0.,-1.));
#1302 = DIRECTION('',(0.,1.,0.));
#1303 = FACE_BOUND('',#1304,.T.);
#1304 = EDGE_LOOP('',(#1305));
#1305 = ORIENTED_EDGE('',*,*,#1270,.F.);
#1306 = PLANE('',#1307);
#1307 = AXIS2_PLACEMENT_3D('',#1308,#1309,#1310);
#1308 = CARTESIAN_POINT('',(0.,0.,2.8));
#1309 = DIRECTION('',(-0.,-0.,-1.));
#1310 = DIRECTION('',(0.,1.,0.));
#1311 = ADVANCED_FACE('',(#1312),#1331,.F.);
#1312 = FACE_BOUND('',#1313,.F.);
#1313 = EDGE_LOOP('',(#1314,#1315,#1323,#1330));
#1314 = ORIENTED_EDGE('',*,*,#1295,.T.);
#1315 = ORIENTED_EDGE('',*,*,#1316,.T.);
#1316 = EDGE_CURVE('',#1296,#1317,#1319,.T.);
#1317 = VERTEX_POINT('',#1318);
#1318 = CARTESIAN_POINT('',(0.,0.155312148366,2.741182018921));
#1319 = LINE('',#1320,#1321);
#1320 = CARTESIAN_POINT('',(0.,0.214130129444,2.8));
#1321 = VECTOR('',#1322,1.);
#1322 = DIRECTION('',(0.,-0.707106781187,-0.707106781187));
#1323 = ORIENTED_EDGE('',*,*,#1324,.F.);
#1324 = EDGE_CURVE('',#1317,#1317,#1325,.T.);
#1325 = CIRCLE('',#1326,0.155312148366);
#1326 = AXIS2_PLACEMENT_3D('',#1327,#1328,#1329);
#1327 = CARTESIAN_POINT('',(0.,0.,2.741182018921));
#1328 = DIRECTION('',(0.,0.,-1.));
#1329 = DIRECTION('',(0.,1.,0.));
#1330 = ORIENTED_EDGE('',*,*,#1316,.F.);
#1331 = CONICAL_SURFACE('',#1332,0.214130129444,0.785398163397);
#1332 = AXIS2_PLACEMENT_3D('',#1333,#1334,#1335);
#1333 = CARTESIAN_POINT('',(0.,0.,2.8));
#1334 = DIRECTION('',(0.,0.,1.));
#1335 = DIRECTION('',(0.,1.,0.));
#1336 = ADVANCED_FACE('',(#1337),#1356,.F.);
#1337 = FACE_BOUND('',#1338,.F.);
#1338 = EDGE_LOOP('',(#1339,#1340,#1348,#1355));
#1339 = ORIENTED_EDGE('',*,*,#1324,.T.);
#1340 = ORIENTED_EDGE('',*,*,#1341,.T.);
#1341 = EDGE_CURVE('',#1317,#1342,#1344,.T.);
#1342 = VERTEX_POINT('',#1343);
#1343 = CARTESIAN_POINT('',(0.,0.27,1.65));
#1344 = LINE('',#1345,#1346);
#1345 = CARTESIAN_POINT('',(0.,0.155312148366,2.741182018921));
#1346 = VECTOR('',#1347,1.);
#1347 = DIRECTION('',(0.,0.104528463268,-0.994521895368));
#1348 = ORIENTED_EDGE('',*,*,#1349,.F.);
#1349 = EDGE_CURVE('',#1342,#1342,#1350,.T.);
#1350 = CIRCLE('',#1351,0.27);
#1351 = AXIS2_PLACEMENT_3D('',#1352,#1353,#1354);
#1352 = CARTESIAN_POINT('',(0.,0.,1.65));
#1353 = DIRECTION('',(0.,0.,-1.));
#1354 = DIRECTION('',(0.,1.,0.));
#1355 = ORIENTED_EDGE('',*,*,#1341,.F.);
#1356 = CONICAL_SURFACE('',#1357,0.155312148366,0.10471975512);
#1357 = AXIS2_PLACEMENT_3D('',#1358,#1359,#1360);
#1358 = CARTESIAN_POINT('',(0.,0.,2.741182018921));
#1359 = DIRECTION('',(-0.,-0.,-1.));
#1360 = DIRECTION('',(0.,1.,0.));
#1361 = ADVANCED_FACE('',(#1362),#1365,.F.);
#1362 = FACE_BOUND('',#1363,.F.);
#1363 = EDGE_LOOP('',(#1364));
#1364 = ORIENTED_EDGE('',*,*,#1349,.T.);
#1365 = PLANE('',#1366);
#1366 = AXIS2_PLACEMENT_3D('',#1367,#1368,#1369);
#1367 = CARTESIAN_POINT('',(0.,0.,1.65));
#1368 = DIRECTION('',(-0.,-0.,-1.));
#1369 = DIRECTION('',(0.,1.,0.));
#1370 = ( GEOMETRIC_REPRESENTATION_CONTEXT(3) 
GLOBAL_UNCERTAINTY_ASSIGNED_CONTEXT((#1374)) 
GLOBAL_UNIT_ASSIGNED_CONTEXT((#1371,#1372,#1373)) REPRESENTATION_CONTEXT
('Context #1','3D Context with UNIT and UNCERTAINTY') );
#1371 = ( LENGTH_UNIT() NAMED_UNIT(*) SI_UNIT(.MILLI.,.METRE.) );
#1372 = ( NAMED_UNIT(*) PLANE_ANGLE_UNIT() SI_UNIT($,.RADIAN.) );
#1373 = ( NAMED_UNIT(*) SI_UNIT($,.STERADIAN.) SOLID_ANGLE_UNIT() );
#1374 = UNCERTAINTY_MEASURE_WITH_UNIT(LENGTH_MEASURE(1.E-07),#1371,
  'distance_accuracy_value','confusion accuracy');
#1375 = PRODUCT_RELATED_PRODUCT_CATEGORY('part',$,(#7));
#1376 = MECHANICAL_DESIGN_GEOMETRIC_PRESENTATION_REPRESENTATION('',(
    #1377),#1370);
#1377 = STYLED_ITEM('color',(#1378),#15);
#1378 = PRESENTATION_STYLE_ASSIGNMENT((#1379,#1385));
#1379 = SURFACE_STYLE_USAGE(.BOTH.,#1380);
#1380 = SURFACE_SIDE_STYLE('',(#1381));
#1381 = SURFACE_STYLE_FILL_AREA(#1382);
#1382 = FILL_AREA_STYLE('',(#1383));
#1383 = FILL_AREA_STYLE_COLOUR('',#1384);
#1384 = COLOUR_RGB('',0.399999997426,0.274509816483,0.);
#1385 = CURVE_STYLE('',#1386,POSITIVE_LENGTH_MEASURE(0.1),#1387);
#1386 = DRAUGHTING_PRE_DEFINED_CURVE_FONT('continuous');
#1387 = COLOUR_RGB('',9.803921802644E-02,9.803921802644E-02,
  9.803921802644E-02);
ENDSEC;
END-ISO-10303-21;
