ISO-10303-21;
HEADER;
FILE_DESCRIPTION(('FreeCAD Model'),'2;1');
FILE_NAME('Open CASCADE Shape Model','2026-02-16T16:53:14',(''),(''),
  'Open CASCADE STEP processor 7.8','FreeCAD','Unknown');
FILE_SCHEMA(('AUTOMOTIVE_DESIGN { 1 0 10303 214 1 1 1 1 }'));
ENDSEC;
DATA;
#1 = APPLICATION_PROTOCOL_DEFINITION('international standard',
  'automotive_design',2000,#2);
#2 = APPLICATION_CONTEXT(
  'core data for automotive mechanical design processes');
#3 = SHAPE_DEFINITION_REPRESENTATION(#4,#10);
#4 = PRODUCT_DEFINITION_SHAPE('','',#5);
#5 = PRODUCT_DEFINITION('design','',#6,#9);
#6 = PRODUCT_DEFINITION_FORMATION('','',#7);
#7 = PRODUCT('Body','Body','',(#8));
#8 = PRODUCT_CONTEXT('',#2,'mechanical');
#9 = PRODUCT_DEFINITION_CONTEXT('part definition',#2,'design');
#10 = ADVANCED_BREP_SHAPE_REPRESENTATION('',(#11,#15),#1262);
#11 = AXIS2_PLACEMENT_3D('',#12,#13,#14);
#12 = CARTESIAN_POINT('',(0.,0.,0.));
#13 = DIRECTION('',(0.,0.,1.));
#14 = DIRECTION('',(1.,0.,-0.));
#15 = MANIFOLD_SOLID_BREP('',#16);
#16 = CLOSED_SHELL('',(#17,#50,#125,#145,#176,#200,#224,#248,#272,#296,
    #320,#337,#363,#526,#551,#582,#606,#630,#647,#678,#702,#726,#743,
    #774,#798,#822,#839,#864,#895,#919,#943,#960,#986,#998,#1010,#1022,
    #1047,#1059,#1079,#1088,#1113,#1138,#1158,#1183,#1203,#1228,#1253));
#17 = ADVANCED_FACE('',(#18),#45,.T.);
#18 = FACE_BOUND('',#19,.T.);
#19 = EDGE_LOOP('',(#20,#30,#37,#38));
#20 = ORIENTED_EDGE('',*,*,#21,.F.);
#21 = EDGE_CURVE('',#22,#24,#26,.T.);
#22 = VERTEX_POINT('',#23);
#23 = CARTESIAN_POINT('',(0.,1.35,1.93));
#24 = VERTEX_POINT('',#25);
#25 = CARTESIAN_POINT('',(0.,1.35,1.55));
#26 = LINE('',#27,#28);
#27 = CARTESIAN_POINT('',(0.,1.35,1.93));
#28 = VECTOR('',#29,1.);
#29 = DIRECTION('',(0.,0.,-1.));
#30 = ORIENTED_EDGE('',*,*,#31,.T.);
#31 = EDGE_CURVE('',#22,#22,#32,.T.);
#32 = CIRCLE('',#33,1.35);
#33 = AXIS2_PLACEMENT_3D('',#34,#35,#36);
#34 = CARTESIAN_POINT('',(0.,0.,1.93));
#35 = DIRECTION('',(0.,0.,-1.));
#36 = DIRECTION('',(0.,1.,0.));
#37 = ORIENTED_EDGE('',*,*,#21,.T.);
#38 = ORIENTED_EDGE('',*,*,#39,.F.);
#39 = EDGE_CURVE('',#24,#24,#40,.T.);
#40 = CIRCLE('',#41,1.35);
#41 = AXIS2_PLACEMENT_3D('',#42,#43,#44);
#42 = CARTESIAN_POINT('',(0.,0.,1.55));
#43 = DIRECTION('',(0.,0.,-1.));
#44 = DIRECTION('',(0.,1.,0.));
#45 = CYLINDRICAL_SURFACE('',#46,1.35);
#46 = AXIS2_PLACEMENT_3D('',#47,#48,#49);
#47 = CARTESIAN_POINT('',(0.,0.,1.93));
#48 = DIRECTION('',(-0.,-0.,-1.));
#49 = DIRECTION('',(0.,1.,-0.));
#50 = ADVANCED_FACE('',(#51,#117),#120,.T.);
#51 = FACE_BOUND('',#52,.T.);
#52 = EDGE_LOOP('',(#53,#63,#71,#79,#87,#95,#103,#111));
#53 = ORIENTED_EDGE('',*,*,#54,.T.);
#54 = EDGE_CURVE('',#55,#57,#59,.T.);
#55 = VERTEX_POINT('',#56);
#56 = CARTESIAN_POINT('',(-1.75,1.35,1.55));
#57 = VERTEX_POINT('',#58);
#58 = CARTESIAN_POINT('',(-1.75,-1.35,1.55));
#59 = LINE('',#60,#61);
#60 = CARTESIAN_POINT('',(-1.75,1.75,1.55));
#61 = VECTOR('',#62,1.);
#62 = DIRECTION('',(0.,-1.,0.));
#63 = ORIENTED_EDGE('',*,*,#64,.T.);
#64 = EDGE_CURVE('',#57,#65,#67,.T.);
#65 = VERTEX_POINT('',#66);
#66 = CARTESIAN_POINT('',(-1.35,-1.75,1.55));
#67 = LINE('',#68,#69);
#68 = CARTESIAN_POINT('',(-1.55,-1.55,1.55));
#69 = VECTOR('',#70,1.);
#70 = DIRECTION('',(0.707106781187,-0.707106781187,0.));
#71 = ORIENTED_EDGE('',*,*,#72,.T.);
#72 = EDGE_CURVE('',#65,#73,#75,.T.);
#73 = VERTEX_POINT('',#74);
#74 = CARTESIAN_POINT('',(1.35,-1.75,1.55));
#75 = LINE('',#76,#77);
#76 = CARTESIAN_POINT('',(-1.75,-1.75,1.55));
#77 = VECTOR('',#78,1.);
#78 = DIRECTION('',(1.,0.,0.));
#79 = ORIENTED_EDGE('',*,*,#80,.T.);
#80 = EDGE_CURVE('',#73,#81,#83,.T.);
#81 = VERTEX_POINT('',#82);
#82 = CARTESIAN_POINT('',(1.75,-1.35,1.55));
#83 = LINE('',#84,#85);
#84 = CARTESIAN_POINT('',(1.55,-1.55,1.55));
#85 = VECTOR('',#86,1.);
#86 = DIRECTION('',(0.707106781187,0.707106781187,0.));
#87 = ORIENTED_EDGE('',*,*,#88,.T.);
#88 = EDGE_CURVE('',#81,#89,#91,.T.);
#89 = VERTEX_POINT('',#90);
#90 = CARTESIAN_POINT('',(1.75,1.35,1.55));
#91 = LINE('',#92,#93);
#92 = CARTESIAN_POINT('',(1.75,-1.75,1.55));
#93 = VECTOR('',#94,1.);
#94 = DIRECTION('',(0.,1.,0.));
#95 = ORIENTED_EDGE('',*,*,#96,.T.);
#96 = EDGE_CURVE('',#89,#97,#99,.T.);
#97 = VERTEX_POINT('',#98);
#98 = CARTESIAN_POINT('',(1.35,1.75,1.55));
#99 = LINE('',#100,#101);
#100 = CARTESIAN_POINT('',(1.55,1.55,1.55));
#101 = VECTOR('',#102,1.);
#102 = DIRECTION('',(-0.707106781187,0.707106781187,0.));
#103 = ORIENTED_EDGE('',*,*,#104,.T.);
#104 = EDGE_CURVE('',#97,#105,#107,.T.);
#105 = VERTEX_POINT('',#106);
#106 = CARTESIAN_POINT('',(-1.35,1.75,1.55));
#107 = LINE('',#108,#109);
#108 = CARTESIAN_POINT('',(1.75,1.75,1.55));
#109 = VECTOR('',#110,1.);
#110 = DIRECTION('',(-1.,0.,0.));
#111 = ORIENTED_EDGE('',*,*,#112,.F.);
#112 = EDGE_CURVE('',#55,#105,#113,.T.);
#113 = LINE('',#114,#115);
#114 = CARTESIAN_POINT('',(-1.55,1.55,1.55));
#115 = VECTOR('',#116,1.);
#116 = DIRECTION('',(0.707106781187,0.707106781187,0.));
#117 = FACE_BOUND('',#118,.T.);
#118 = EDGE_LOOP('',(#119));
#119 = ORIENTED_EDGE('',*,*,#39,.T.);
#120 = PLANE('',#121);
#121 = AXIS2_PLACEMENT_3D('',#122,#123,#124);
#122 = CARTESIAN_POINT('',(-1.3E-16,0.,1.55));
#123 = DIRECTION('',(0.,0.,1.));
#124 = DIRECTION('',(1.,0.,0.));
#125 = ADVANCED_FACE('',(#126,#129),#140,.F.);
#126 = FACE_BOUND('',#127,.F.);
#127 = EDGE_LOOP('',(#128));
#128 = ORIENTED_EDGE('',*,*,#31,.T.);
#129 = FACE_BOUND('',#130,.F.);
#130 = EDGE_LOOP('',(#131));
#131 = ORIENTED_EDGE('',*,*,#132,.F.);
#132 = EDGE_CURVE('',#133,#133,#135,.T.);
#133 = VERTEX_POINT('',#134);
#134 = CARTESIAN_POINT('',(0.,1.314999999998,1.93));
#135 = CIRCLE('',#136,1.314999999998);
#136 = AXIS2_PLACEMENT_3D('',#137,#138,#139);
#137 = CARTESIAN_POINT('',(0.,0.,1.93));
#138 = DIRECTION('',(0.,0.,-1.));
#139 = DIRECTION('',(0.,1.,0.));
#140 = PLANE('',#141);
#141 = AXIS2_PLACEMENT_3D('',#142,#143,#144);
#142 = CARTESIAN_POINT('',(0.,0.,1.93));
#143 = DIRECTION('',(-0.,-0.,-1.));
#144 = DIRECTION('',(0.,1.,-0.));
#145 = ADVANCED_FACE('',(#146),#171,.F.);
#146 = FACE_BOUND('',#147,.F.);
#147 = EDGE_LOOP('',(#148,#158,#164,#165));
#148 = ORIENTED_EDGE('',*,*,#149,.F.);
#149 = EDGE_CURVE('',#150,#152,#154,.T.);
#150 = VERTEX_POINT('',#151);
#151 = CARTESIAN_POINT('',(-1.75,1.35,0.));
#152 = VERTEX_POINT('',#153);
#153 = CARTESIAN_POINT('',(-1.75,-1.35,0.));
#154 = LINE('',#155,#156);
#155 = CARTESIAN_POINT('',(-1.75,1.75,0.));
#156 = VECTOR('',#157,1.);
#157 = DIRECTION('',(0.,-1.,0.));
#158 = ORIENTED_EDGE('',*,*,#159,.T.);
#159 = EDGE_CURVE('',#150,#55,#160,.T.);
#160 = LINE('',#161,#162);
#161 = CARTESIAN_POINT('',(-1.75,1.35,0.));
#162 = VECTOR('',#163,1.);
#163 = DIRECTION('',(0.,0.,1.));
#164 = ORIENTED_EDGE('',*,*,#54,.T.);
#165 = ORIENTED_EDGE('',*,*,#166,.F.);
#166 = EDGE_CURVE('',#152,#57,#167,.T.);
#167 = LINE('',#168,#169);
#168 = CARTESIAN_POINT('',(-1.75,-1.35,0.));
#169 = VECTOR('',#170,1.);
#170 = DIRECTION('',(0.,0.,1.));
#171 = PLANE('',#172);
#172 = AXIS2_PLACEMENT_3D('',#173,#174,#175);
#173 = CARTESIAN_POINT('',(-1.75,1.75,0.));
#174 = DIRECTION('',(1.,0.,0.));
#175 = DIRECTION('',(0.,-1.,0.));
#176 = ADVANCED_FACE('',(#177),#195,.T.);
#177 = FACE_BOUND('',#178,.T.);
#178 = EDGE_LOOP('',(#179,#187,#188,#189));
#179 = ORIENTED_EDGE('',*,*,#180,.F.);
#180 = EDGE_CURVE('',#150,#181,#183,.T.);
#181 = VERTEX_POINT('',#182);
#182 = CARTESIAN_POINT('',(-1.35,1.75,0.));
#183 = LINE('',#184,#185);
#184 = CARTESIAN_POINT('',(-1.55,1.55,0.));
#185 = VECTOR('',#186,1.);
#186 = DIRECTION('',(0.707106781187,0.707106781187,0.));
#187 = ORIENTED_EDGE('',*,*,#159,.T.);
#188 = ORIENTED_EDGE('',*,*,#112,.T.);
#189 = ORIENTED_EDGE('',*,*,#190,.F.);
#190 = EDGE_CURVE('',#181,#105,#191,.T.);
#191 = LINE('',#192,#193);
#192 = CARTESIAN_POINT('',(-1.35,1.75,0.));
#193 = VECTOR('',#194,1.);
#194 = DIRECTION('',(0.,0.,1.));
#195 = PLANE('',#196);
#196 = AXIS2_PLACEMENT_3D('',#197,#198,#199);
#197 = CARTESIAN_POINT('',(-1.55,1.55,0.));
#198 = DIRECTION('',(-0.707106781187,0.707106781187,0.));
#199 = DIRECTION('',(0.,0.,1.));
#200 = ADVANCED_FACE('',(#201),#219,.T.);
#201 = FACE_BOUND('',#202,.F.);
#202 = EDGE_LOOP('',(#203,#211,#212,#213));
#203 = ORIENTED_EDGE('',*,*,#204,.F.);
#204 = EDGE_CURVE('',#152,#205,#207,.T.);
#205 = VERTEX_POINT('',#206);
#206 = CARTESIAN_POINT('',(-1.35,-1.75,0.));
#207 = LINE('',#208,#209);
#208 = CARTESIAN_POINT('',(-1.55,-1.55,0.));
#209 = VECTOR('',#210,1.);
#210 = DIRECTION('',(0.707106781187,-0.707106781187,0.));
#211 = ORIENTED_EDGE('',*,*,#166,.T.);
#212 = ORIENTED_EDGE('',*,*,#64,.T.);
#213 = ORIENTED_EDGE('',*,*,#214,.F.);
#214 = EDGE_CURVE('',#205,#65,#215,.T.);
#215 = LINE('',#216,#217);
#216 = CARTESIAN_POINT('',(-1.35,-1.75,0.));
#217 = VECTOR('',#218,1.);
#218 = DIRECTION('',(0.,0.,1.));
#219 = PLANE('',#220);
#220 = AXIS2_PLACEMENT_3D('',#221,#222,#223);
#221 = CARTESIAN_POINT('',(-1.55,-1.55,0.));
#222 = DIRECTION('',(-0.707106781187,-0.707106781187,-0.));
#223 = DIRECTION('',(0.,0.,-1.));
#224 = ADVANCED_FACE('',(#225),#243,.F.);
#225 = FACE_BOUND('',#226,.F.);
#226 = EDGE_LOOP('',(#227,#235,#241,#242));
#227 = ORIENTED_EDGE('',*,*,#228,.F.);
#228 = EDGE_CURVE('',#229,#181,#231,.T.);
#229 = VERTEX_POINT('',#230);
#230 = CARTESIAN_POINT('',(1.35,1.75,0.));
#231 = LINE('',#232,#233);
#232 = CARTESIAN_POINT('',(1.75,1.75,0.));
#233 = VECTOR('',#234,1.);
#234 = DIRECTION('',(-1.,0.,0.));
#235 = ORIENTED_EDGE('',*,*,#236,.T.);
#236 = EDGE_CURVE('',#229,#97,#237,.T.);
#237 = LINE('',#238,#239);
#238 = CARTESIAN_POINT('',(1.35,1.75,0.));
#239 = VECTOR('',#240,1.);
#240 = DIRECTION('',(0.,0.,1.));
#241 = ORIENTED_EDGE('',*,*,#104,.T.);
#242 = ORIENTED_EDGE('',*,*,#190,.F.);
#243 = PLANE('',#244);
#244 = AXIS2_PLACEMENT_3D('',#245,#246,#247);
#245 = CARTESIAN_POINT('',(1.75,1.75,0.));
#246 = DIRECTION('',(0.,-1.,0.));
#247 = DIRECTION('',(-1.,0.,0.));
#248 = ADVANCED_FACE('',(#249),#267,.F.);
#249 = FACE_BOUND('',#250,.F.);
#250 = EDGE_LOOP('',(#251,#259,#260,#261));
#251 = ORIENTED_EDGE('',*,*,#252,.F.);
#252 = EDGE_CURVE('',#205,#253,#255,.T.);
#253 = VERTEX_POINT('',#254);
#254 = CARTESIAN_POINT('',(1.35,-1.75,0.));
#255 = LINE('',#256,#257);
#256 = CARTESIAN_POINT('',(-1.75,-1.75,0.));
#257 = VECTOR('',#258,1.);
#258 = DIRECTION('',(1.,0.,0.));
#259 = ORIENTED_EDGE('',*,*,#214,.T.);
#260 = ORIENTED_EDGE('',*,*,#72,.T.);
#261 = ORIENTED_EDGE('',*,*,#262,.F.);
#262 = EDGE_CURVE('',#253,#73,#263,.T.);
#263 = LINE('',#264,#265);
#264 = CARTESIAN_POINT('',(1.35,-1.75,0.));
#265 = VECTOR('',#266,1.);
#266 = DIRECTION('',(0.,0.,1.));
#267 = PLANE('',#268);
#268 = AXIS2_PLACEMENT_3D('',#269,#270,#271);
#269 = CARTESIAN_POINT('',(-1.75,-1.75,0.));
#270 = DIRECTION('',(0.,1.,0.));
#271 = DIRECTION('',(1.,0.,0.));
#272 = ADVANCED_FACE('',(#273),#291,.T.);
#273 = FACE_BOUND('',#274,.F.);
#274 = EDGE_LOOP('',(#275,#283,#289,#290));
#275 = ORIENTED_EDGE('',*,*,#276,.F.);
#276 = EDGE_CURVE('',#277,#229,#279,.T.);
#277 = VERTEX_POINT('',#278);
#278 = CARTESIAN_POINT('',(1.75,1.35,0.));
#279 = LINE('',#280,#281);
#280 = CARTESIAN_POINT('',(1.55,1.55,0.));
#281 = VECTOR('',#282,1.);
#282 = DIRECTION('',(-0.707106781187,0.707106781187,0.));
#283 = ORIENTED_EDGE('',*,*,#284,.T.);
#284 = EDGE_CURVE('',#277,#89,#285,.T.);
#285 = LINE('',#286,#287);
#286 = CARTESIAN_POINT('',(1.75,1.35,0.));
#287 = VECTOR('',#288,1.);
#288 = DIRECTION('',(0.,0.,1.));
#289 = ORIENTED_EDGE('',*,*,#96,.T.);
#290 = ORIENTED_EDGE('',*,*,#236,.F.);
#291 = PLANE('',#292);
#292 = AXIS2_PLACEMENT_3D('',#293,#294,#295);
#293 = CARTESIAN_POINT('',(1.55,1.55,0.));
#294 = DIRECTION('',(0.707106781187,0.707106781187,0.));
#295 = DIRECTION('',(0.,0.,-1.));
#296 = ADVANCED_FACE('',(#297),#315,.T.);
#297 = FACE_BOUND('',#298,.F.);
#298 = EDGE_LOOP('',(#299,#307,#308,#309));
#299 = ORIENTED_EDGE('',*,*,#300,.F.);
#300 = EDGE_CURVE('',#253,#301,#303,.T.);
#301 = VERTEX_POINT('',#302);
#302 = CARTESIAN_POINT('',(1.75,-1.35,0.));
#303 = LINE('',#304,#305);
#304 = CARTESIAN_POINT('',(1.55,-1.55,0.));
#305 = VECTOR('',#306,1.);
#306 = DIRECTION('',(0.707106781187,0.707106781187,0.));
#307 = ORIENTED_EDGE('',*,*,#262,.T.);
#308 = ORIENTED_EDGE('',*,*,#80,.T.);
#309 = ORIENTED_EDGE('',*,*,#310,.F.);
#310 = EDGE_CURVE('',#301,#81,#311,.T.);
#311 = LINE('',#312,#313);
#312 = CARTESIAN_POINT('',(1.75,-1.35,0.));
#313 = VECTOR('',#314,1.);
#314 = DIRECTION('',(0.,0.,1.));
#315 = PLANE('',#316);
#316 = AXIS2_PLACEMENT_3D('',#317,#318,#319);
#317 = CARTESIAN_POINT('',(1.55,-1.55,0.));
#318 = DIRECTION('',(0.707106781187,-0.707106781187,0.));
#319 = DIRECTION('',(-0.,-0.,-1.));
#320 = ADVANCED_FACE('',(#321),#332,.F.);
#321 = FACE_BOUND('',#322,.F.);
#322 = EDGE_LOOP('',(#323,#329,#330,#331));
#323 = ORIENTED_EDGE('',*,*,#324,.F.);
#324 = EDGE_CURVE('',#301,#277,#325,.T.);
#325 = LINE('',#326,#327);
#326 = CARTESIAN_POINT('',(1.75,-1.75,0.));
#327 = VECTOR('',#328,1.);
#328 = DIRECTION('',(0.,1.,0.));
#329 = ORIENTED_EDGE('',*,*,#310,.T.);
#330 = ORIENTED_EDGE('',*,*,#88,.T.);
#331 = ORIENTED_EDGE('',*,*,#284,.F.);
#332 = PLANE('',#333);
#333 = AXIS2_PLACEMENT_3D('',#334,#335,#336);
#334 = CARTESIAN_POINT('',(1.75,-1.75,0.));
#335 = DIRECTION('',(-1.,0.,0.));
#336 = DIRECTION('',(0.,1.,0.));
#337 = ADVANCED_FACE('',(#338),#358,.T.);
#338 = FACE_BOUND('',#339,.F.);
#339 = EDGE_LOOP('',(#340,#341,#350,#357));
#340 = ORIENTED_EDGE('',*,*,#132,.T.);
#341 = ORIENTED_EDGE('',*,*,#342,.T.);
#342 = EDGE_CURVE('',#133,#343,#345,.T.);
#343 = VERTEX_POINT('',#344);
#344 = CARTESIAN_POINT('',(0.,1.514999999999,2.13));
#345 = CIRCLE('',#346,0.2);
#346 = AXIS2_PLACEMENT_3D('',#347,#348,#349);
#347 = CARTESIAN_POINT('',(0.,1.314999999998,2.13));
#348 = DIRECTION('',(1.,0.,0.));
#349 = DIRECTION('',(0.,1.,0.));
#350 = ORIENTED_EDGE('',*,*,#351,.F.);
#351 = EDGE_CURVE('',#343,#343,#352,.T.);
#352 = CIRCLE('',#353,1.514999999999);
#353 = AXIS2_PLACEMENT_3D('',#354,#355,#356);
#354 = CARTESIAN_POINT('',(0.,0.,2.13));
#355 = DIRECTION('',(0.,0.,-1.));
#356 = DIRECTION('',(0.,1.,0.));
#357 = ORIENTED_EDGE('',*,*,#342,.F.);
#358 = TOROIDAL_SURFACE('',#359,1.314999999998,0.2);
#359 = AXIS2_PLACEMENT_3D('',#360,#361,#362);
#360 = CARTESIAN_POINT('',(0.,0.,2.13));
#361 = DIRECTION('',(0.,0.,1.));
#362 = DIRECTION('',(0.,1.,0.));
#363 = ADVANCED_FACE('',(#364,#374,#408,#442,#476,#487),#521,.F.);
#364 = FACE_BOUND('',#365,.F.);
#365 = EDGE_LOOP('',(#366,#367,#368,#369,#370,#371,#372,#373));
#366 = ORIENTED_EDGE('',*,*,#149,.T.);
#367 = ORIENTED_EDGE('',*,*,#204,.T.);
#368 = ORIENTED_EDGE('',*,*,#252,.T.);
#369 = ORIENTED_EDGE('',*,*,#300,.T.);
#370 = ORIENTED_EDGE('',*,*,#324,.T.);
#371 = ORIENTED_EDGE('',*,*,#276,.T.);
#372 = ORIENTED_EDGE('',*,*,#228,.T.);
#373 = ORIENTED_EDGE('',*,*,#180,.F.);
#374 = FACE_BOUND('',#375,.F.);
#375 = EDGE_LOOP('',(#376,#386,#394,#402));
#376 = ORIENTED_EDGE('',*,*,#377,.T.);
#377 = EDGE_CURVE('',#378,#380,#382,.T.);
#378 = VERTEX_POINT('',#379);
#379 = CARTESIAN_POINT('',(-1.02,-1.52,0.));
#380 = VERTEX_POINT('',#381);
#381 = CARTESIAN_POINT('',(-1.52,-1.52,0.));
#382 = LINE('',#383,#384);
#383 = CARTESIAN_POINT('',(-1.02,-1.52,0.));
#384 = VECTOR('',#385,1.);
#385 = DIRECTION('',(-1.,0.,0.));
#386 = ORIENTED_EDGE('',*,*,#387,.T.);
#387 = EDGE_CURVE('',#380,#388,#390,.T.);
#388 = VERTEX_POINT('',#389);
#389 = CARTESIAN_POINT('',(-1.52,-1.02,0.));
#390 = LINE('',#391,#392);
#391 = CARTESIAN_POINT('',(-1.52,-1.52,0.));
#392 = VECTOR('',#393,1.);
#393 = DIRECTION('',(0.,1.,0.));
#394 = ORIENTED_EDGE('',*,*,#395,.T.);
#395 = EDGE_CURVE('',#388,#396,#398,.T.);
#396 = VERTEX_POINT('',#397);
#397 = CARTESIAN_POINT('',(-1.02,-1.02,0.));
#398 = LINE('',#399,#400);
#399 = CARTESIAN_POINT('',(-1.52,-1.02,0.));
#400 = VECTOR('',#401,1.);
#401 = DIRECTION('',(1.,0.,0.));
#402 = ORIENTED_EDGE('',*,*,#403,.T.);
#403 = EDGE_CURVE('',#396,#378,#404,.T.);
#404 = LINE('',#405,#406);
#405 = CARTESIAN_POINT('',(-1.02,-1.02,0.));
#406 = VECTOR('',#407,1.);
#407 = DIRECTION('',(0.,-1.,0.));
#408 = FACE_BOUND('',#409,.F.);
#409 = EDGE_LOOP('',(#410,#420,#428,#436));
#410 = ORIENTED_EDGE('',*,*,#411,.T.);
#411 = EDGE_CURVE('',#412,#414,#416,.T.);
#412 = VERTEX_POINT('',#413);
#413 = CARTESIAN_POINT('',(1.52,-1.52,0.));
#414 = VERTEX_POINT('',#415);
#415 = CARTESIAN_POINT('',(1.02,-1.52,0.));
#416 = LINE('',#417,#418);
#417 = CARTESIAN_POINT('',(1.52,-1.52,0.));
#418 = VECTOR('',#419,1.);
#419 = DIRECTION('',(-1.,0.,0.));
#420 = ORIENTED_EDGE('',*,*,#421,.T.);
#421 = EDGE_CURVE('',#414,#422,#424,.T.);
#422 = VERTEX_POINT('',#423);
#423 = CARTESIAN_POINT('',(1.02,-1.02,0.));
#424 = LINE('',#425,#426);
#425 = CARTESIAN_POINT('',(1.02,-1.52,0.));
#426 = VECTOR('',#427,1.);
#427 = DIRECTION('',(0.,1.,0.));
#428 = ORIENTED_EDGE('',*,*,#429,.T.);
#429 = EDGE_CURVE('',#422,#430,#432,.T.);
#430 = VERTEX_POINT('',#431);
#431 = CARTESIAN_POINT('',(1.52,-1.02,0.));
#432 = LINE('',#433,#434);
#433 = CARTESIAN_POINT('',(1.02,-1.02,0.));
#434 = VECTOR('',#435,1.);
#435 = DIRECTION('',(1.,0.,0.));
#436 = ORIENTED_EDGE('',*,*,#437,.T.);
#437 = EDGE_CURVE('',#430,#412,#438,.T.);
#438 = LINE('',#439,#440);
#439 = CARTESIAN_POINT('',(1.52,-1.02,0.));
#440 = VECTOR('',#441,1.);
#441 = DIRECTION('',(0.,-1.,0.));
#442 = FACE_BOUND('',#443,.F.);
#443 = EDGE_LOOP('',(#444,#454,#462,#470));
#444 = ORIENTED_EDGE('',*,*,#445,.T.);
#445 = EDGE_CURVE('',#446,#448,#450,.T.);
#446 = VERTEX_POINT('',#447);
#447 = CARTESIAN_POINT('',(-1.02,1.02,0.));
#448 = VERTEX_POINT('',#449);
#449 = CARTESIAN_POINT('',(-1.52,1.02,0.));
#450 = LINE('',#451,#452);
#451 = CARTESIAN_POINT('',(-1.02,1.02,0.));
#452 = VECTOR('',#453,1.);
#453 = DIRECTION('',(-1.,0.,0.));
#454 = ORIENTED_EDGE('',*,*,#455,.T.);
#455 = EDGE_CURVE('',#448,#456,#458,.T.);
#456 = VERTEX_POINT('',#457);
#457 = CARTESIAN_POINT('',(-1.52,1.52,0.));
#458 = LINE('',#459,#460);
#459 = CARTESIAN_POINT('',(-1.52,1.02,0.));
#460 = VECTOR('',#461,1.);
#461 = DIRECTION('',(0.,1.,0.));
#462 = ORIENTED_EDGE('',*,*,#463,.T.);
#463 = EDGE_CURVE('',#456,#464,#466,.T.);
#464 = VERTEX_POINT('',#465);
#465 = CARTESIAN_POINT('',(-1.02,1.52,0.));
#466 = LINE('',#467,#468);
#467 = CARTESIAN_POINT('',(-1.52,1.52,0.));
#468 = VECTOR('',#469,1.);
#469 = DIRECTION('',(1.,0.,0.));
#470 = ORIENTED_EDGE('',*,*,#471,.T.);
#471 = EDGE_CURVE('',#464,#446,#472,.T.);
#472 = LINE('',#473,#474);
#473 = CARTESIAN_POINT('',(-1.02,1.52,0.));
#474 = VECTOR('',#475,1.);
#475 = DIRECTION('',(0.,-1.,0.));
#476 = FACE_BOUND('',#477,.F.);
#477 = EDGE_LOOP('',(#478));
#478 = ORIENTED_EDGE('',*,*,#479,.T.);
#479 = EDGE_CURVE('',#480,#480,#482,.T.);
#480 = VERTEX_POINT('',#481);
#481 = CARTESIAN_POINT('',(0.35,0.,0.));
#482 = CIRCLE('',#483,0.35);
#483 = AXIS2_PLACEMENT_3D('',#484,#485,#486);
#484 = CARTESIAN_POINT('',(0.,0.,0.));
#485 = DIRECTION('',(0.,0.,-1.));
#486 = DIRECTION('',(1.,0.,0.));
#487 = FACE_BOUND('',#488,.F.);
#488 = EDGE_LOOP('',(#489,#499,#507,#515));
#489 = ORIENTED_EDGE('',*,*,#490,.T.);
#490 = EDGE_CURVE('',#491,#493,#495,.T.);
#491 = VERTEX_POINT('',#492);
#492 = CARTESIAN_POINT('',(1.52,1.52,0.));
#493 = VERTEX_POINT('',#494);
#494 = CARTESIAN_POINT('',(1.52,1.02,0.));
#495 = LINE('',#496,#497);
#496 = CARTESIAN_POINT('',(1.52,1.52,0.));
#497 = VECTOR('',#498,1.);
#498 = DIRECTION('',(0.,-1.,0.));
#499 = ORIENTED_EDGE('',*,*,#500,.T.);
#500 = EDGE_CURVE('',#493,#501,#503,.T.);
#501 = VERTEX_POINT('',#502);
#502 = CARTESIAN_POINT('',(1.02,1.02,0.));
#503 = LINE('',#504,#505);
#504 = CARTESIAN_POINT('',(1.52,1.02,0.));
#505 = VECTOR('',#506,1.);
#506 = DIRECTION('',(-1.,0.,0.));
#507 = ORIENTED_EDGE('',*,*,#508,.T.);
#508 = EDGE_CURVE('',#501,#509,#511,.T.);
#509 = VERTEX_POINT('',#510);
#510 = CARTESIAN_POINT('',(1.02,1.52,0.));
#511 = LINE('',#512,#513);
#512 = CARTESIAN_POINT('',(1.02,1.02,0.));
#513 = VECTOR('',#514,1.);
#514 = DIRECTION('',(0.,1.,0.));
#515 = ORIENTED_EDGE('',*,*,#516,.T.);
#516 = EDGE_CURVE('',#509,#491,#517,.T.);
#517 = LINE('',#518,#519);
#518 = CARTESIAN_POINT('',(1.02,1.52,0.));
#519 = VECTOR('',#520,1.);
#520 = DIRECTION('',(1.,0.,0.));
#521 = PLANE('',#522);
#522 = AXIS2_PLACEMENT_3D('',#523,#524,#525);
#523 = CARTESIAN_POINT('',(-1.3E-16,0.,0.));
#524 = DIRECTION('',(0.,0.,1.));
#525 = DIRECTION('',(1.,0.,0.));
#526 = ADVANCED_FACE('',(#527),#546,.T.);
#527 = FACE_BOUND('',#528,.T.);
#528 = EDGE_LOOP('',(#529,#538,#544,#545));
#529 = ORIENTED_EDGE('',*,*,#530,.T.);
#530 = EDGE_CURVE('',#531,#531,#533,.T.);
#531 = VERTEX_POINT('',#532);
#532 = CARTESIAN_POINT('',(0.,1.515,2.42));
#533 = CIRCLE('',#534,1.515);
#534 = AXIS2_PLACEMENT_3D('',#535,#536,#537);
#535 = CARTESIAN_POINT('',(0.,0.,2.42));
#536 = DIRECTION('',(0.,0.,-1.));
#537 = DIRECTION('',(0.,1.,0.));
#538 = ORIENTED_EDGE('',*,*,#539,.T.);
#539 = EDGE_CURVE('',#531,#343,#540,.T.);
#540 = LINE('',#541,#542);
#541 = CARTESIAN_POINT('',(0.,1.515,2.42));
#542 = VECTOR('',#543,1.);
#543 = DIRECTION('',(0.,0.,-1.));
#544 = ORIENTED_EDGE('',*,*,#351,.F.);
#545 = ORIENTED_EDGE('',*,*,#539,.F.);
#546 = CYLINDRICAL_SURFACE('',#547,1.515);
#547 = AXIS2_PLACEMENT_3D('',#548,#549,#550);
#548 = CARTESIAN_POINT('',(0.,0.,2.42));
#549 = DIRECTION('',(-0.,-0.,-1.));
#550 = DIRECTION('',(0.,1.,-0.));
#551 = ADVANCED_FACE('',(#552),#577,.F.);
#552 = FACE_BOUND('',#553,.F.);
#553 = EDGE_LOOP('',(#554,#562,#570,#576));
#554 = ORIENTED_EDGE('',*,*,#555,.T.);
#555 = EDGE_CURVE('',#378,#556,#558,.T.);
#556 = VERTEX_POINT('',#557);
#557 = CARTESIAN_POINT('',(-1.02,-1.52,-3.05));
#558 = LINE('',#559,#560);
#559 = CARTESIAN_POINT('',(-1.02,-1.52,0.));
#560 = VECTOR('',#561,1.);
#561 = DIRECTION('',(0.,0.,-1.));
#562 = ORIENTED_EDGE('',*,*,#563,.T.);
#563 = EDGE_CURVE('',#556,#564,#566,.T.);
#564 = VERTEX_POINT('',#565);
#565 = CARTESIAN_POINT('',(-1.52,-1.52,-3.05));
#566 = LINE('',#567,#568);
#567 = CARTESIAN_POINT('',(-1.02,-1.52,-3.05));
#568 = VECTOR('',#569,1.);
#569 = DIRECTION('',(-1.,0.,0.));
#570 = ORIENTED_EDGE('',*,*,#571,.F.);
#571 = EDGE_CURVE('',#380,#564,#572,.T.);
#572 = LINE('',#573,#574);
#573 = CARTESIAN_POINT('',(-1.52,-1.52,0.));
#574 = VECTOR('',#575,1.);
#575 = DIRECTION('',(0.,0.,-1.));
#576 = ORIENTED_EDGE('',*,*,#377,.F.);
#577 = PLANE('',#578);
#578 = AXIS2_PLACEMENT_3D('',#579,#580,#581);
#579 = CARTESIAN_POINT('',(-1.02,-1.52,0.));
#580 = DIRECTION('',(0.,1.,0.));
#581 = DIRECTION('',(-1.,0.,0.));
#582 = ADVANCED_FACE('',(#583),#601,.F.);
#583 = FACE_BOUND('',#584,.F.);
#584 = EDGE_LOOP('',(#585,#593,#599,#600));
#585 = ORIENTED_EDGE('',*,*,#586,.T.);
#586 = EDGE_CURVE('',#396,#587,#589,.T.);
#587 = VERTEX_POINT('',#588);
#588 = CARTESIAN_POINT('',(-1.02,-1.02,-3.05));
#589 = LINE('',#590,#591);
#590 = CARTESIAN_POINT('',(-1.02,-1.02,0.));
#591 = VECTOR('',#592,1.);
#592 = DIRECTION('',(0.,0.,-1.));
#593 = ORIENTED_EDGE('',*,*,#594,.T.);
#594 = EDGE_CURVE('',#587,#556,#595,.T.);
#595 = LINE('',#596,#597);
#596 = CARTESIAN_POINT('',(-1.02,-1.02,-3.05));
#597 = VECTOR('',#598,1.);
#598 = DIRECTION('',(0.,-1.,0.));
#599 = ORIENTED_EDGE('',*,*,#555,.F.);
#600 = ORIENTED_EDGE('',*,*,#403,.F.);
#601 = PLANE('',#602);
#602 = AXIS2_PLACEMENT_3D('',#603,#604,#605);
#603 = CARTESIAN_POINT('',(-1.02,-1.02,0.));
#604 = DIRECTION('',(-1.,-0.,-0.));
#605 = DIRECTION('',(0.,-1.,0.));
#606 = ADVANCED_FACE('',(#607),#625,.F.);
#607 = FACE_BOUND('',#608,.F.);
#608 = EDGE_LOOP('',(#609,#617,#623,#624));
#609 = ORIENTED_EDGE('',*,*,#610,.T.);
#610 = EDGE_CURVE('',#388,#611,#613,.T.);
#611 = VERTEX_POINT('',#612);
#612 = CARTESIAN_POINT('',(-1.52,-1.02,-3.05));
#613 = LINE('',#614,#615);
#614 = CARTESIAN_POINT('',(-1.52,-1.02,0.));
#615 = VECTOR('',#616,1.);
#616 = DIRECTION('',(0.,0.,-1.));
#617 = ORIENTED_EDGE('',*,*,#618,.T.);
#618 = EDGE_CURVE('',#611,#587,#619,.T.);
#619 = LINE('',#620,#621);
#620 = CARTESIAN_POINT('',(-1.52,-1.02,-3.05));
#621 = VECTOR('',#622,1.);
#622 = DIRECTION('',(1.,0.,0.));
#623 = ORIENTED_EDGE('',*,*,#586,.F.);
#624 = ORIENTED_EDGE('',*,*,#395,.F.);
#625 = PLANE('',#626);
#626 = AXIS2_PLACEMENT_3D('',#627,#628,#629);
#627 = CARTESIAN_POINT('',(-1.52,-1.02,0.));
#628 = DIRECTION('',(0.,-1.,0.));
#629 = DIRECTION('',(1.,0.,0.));
#630 = ADVANCED_FACE('',(#631),#642,.F.);
#631 = FACE_BOUND('',#632,.F.);
#632 = EDGE_LOOP('',(#633,#634,#640,#641));
#633 = ORIENTED_EDGE('',*,*,#571,.T.);
#634 = ORIENTED_EDGE('',*,*,#635,.T.);
#635 = EDGE_CURVE('',#564,#611,#636,.T.);
#636 = LINE('',#637,#638);
#637 = CARTESIAN_POINT('',(-1.52,-1.52,-3.05));
#638 = VECTOR('',#639,1.);
#639 = DIRECTION('',(0.,1.,0.));
#640 = ORIENTED_EDGE('',*,*,#610,.F.);
#641 = ORIENTED_EDGE('',*,*,#387,.F.);
#642 = PLANE('',#643);
#643 = AXIS2_PLACEMENT_3D('',#644,#645,#646);
#644 = CARTESIAN_POINT('',(-1.52,-1.52,0.));
#645 = DIRECTION('',(1.,0.,0.));
#646 = DIRECTION('',(0.,1.,0.));
#647 = ADVANCED_FACE('',(#648),#673,.F.);
#648 = FACE_BOUND('',#649,.F.);
#649 = EDGE_LOOP('',(#650,#658,#666,#672));
#650 = ORIENTED_EDGE('',*,*,#651,.T.);
#651 = EDGE_CURVE('',#412,#652,#654,.T.);
#652 = VERTEX_POINT('',#653);
#653 = CARTESIAN_POINT('',(1.52,-1.52,-3.05));
#654 = LINE('',#655,#656);
#655 = CARTESIAN_POINT('',(1.52,-1.52,0.));
#656 = VECTOR('',#657,1.);
#657 = DIRECTION('',(0.,0.,-1.));
#658 = ORIENTED_EDGE('',*,*,#659,.T.);
#659 = EDGE_CURVE('',#652,#660,#662,.T.);
#660 = VERTEX_POINT('',#661);
#661 = CARTESIAN_POINT('',(1.02,-1.52,-3.05));
#662 = LINE('',#663,#664);
#663 = CARTESIAN_POINT('',(1.52,-1.52,-3.05));
#664 = VECTOR('',#665,1.);
#665 = DIRECTION('',(-1.,0.,0.));
#666 = ORIENTED_EDGE('',*,*,#667,.F.);
#667 = EDGE_CURVE('',#414,#660,#668,.T.);
#668 = LINE('',#669,#670);
#669 = CARTESIAN_POINT('',(1.02,-1.52,0.));
#670 = VECTOR('',#671,1.);
#671 = DIRECTION('',(0.,0.,-1.));
#672 = ORIENTED_EDGE('',*,*,#411,.F.);
#673 = PLANE('',#674);
#674 = AXIS2_PLACEMENT_3D('',#675,#676,#677);
#675 = CARTESIAN_POINT('',(1.52,-1.52,0.));
#676 = DIRECTION('',(0.,1.,0.));
#677 = DIRECTION('',(-1.,0.,0.));
#678 = ADVANCED_FACE('',(#679),#697,.F.);
#679 = FACE_BOUND('',#680,.F.);
#680 = EDGE_LOOP('',(#681,#689,#695,#696));
#681 = ORIENTED_EDGE('',*,*,#682,.T.);
#682 = EDGE_CURVE('',#430,#683,#685,.T.);
#683 = VERTEX_POINT('',#684);
#684 = CARTESIAN_POINT('',(1.52,-1.02,-3.05));
#685 = LINE('',#686,#687);
#686 = CARTESIAN_POINT('',(1.52,-1.02,0.));
#687 = VECTOR('',#688,1.);
#688 = DIRECTION('',(0.,0.,-1.));
#689 = ORIENTED_EDGE('',*,*,#690,.T.);
#690 = EDGE_CURVE('',#683,#652,#691,.T.);
#691 = LINE('',#692,#693);
#692 = CARTESIAN_POINT('',(1.52,-1.02,-3.05));
#693 = VECTOR('',#694,1.);
#694 = DIRECTION('',(0.,-1.,0.));
#695 = ORIENTED_EDGE('',*,*,#651,.F.);
#696 = ORIENTED_EDGE('',*,*,#437,.F.);
#697 = PLANE('',#698);
#698 = AXIS2_PLACEMENT_3D('',#699,#700,#701);
#699 = CARTESIAN_POINT('',(1.52,-1.02,0.));
#700 = DIRECTION('',(-1.,-0.,-0.));
#701 = DIRECTION('',(0.,-1.,0.));
#702 = ADVANCED_FACE('',(#703),#721,.F.);
#703 = FACE_BOUND('',#704,.F.);
#704 = EDGE_LOOP('',(#705,#713,#719,#720));
#705 = ORIENTED_EDGE('',*,*,#706,.T.);
#706 = EDGE_CURVE('',#422,#707,#709,.T.);
#707 = VERTEX_POINT('',#708);
#708 = CARTESIAN_POINT('',(1.02,-1.02,-3.05));
#709 = LINE('',#710,#711);
#710 = CARTESIAN_POINT('',(1.02,-1.02,0.));
#711 = VECTOR('',#712,1.);
#712 = DIRECTION('',(0.,0.,-1.));
#713 = ORIENTED_EDGE('',*,*,#714,.T.);
#714 = EDGE_CURVE('',#707,#683,#715,.T.);
#715 = LINE('',#716,#717);
#716 = CARTESIAN_POINT('',(1.02,-1.02,-3.05));
#717 = VECTOR('',#718,1.);
#718 = DIRECTION('',(1.,0.,0.));
#719 = ORIENTED_EDGE('',*,*,#682,.F.);
#720 = ORIENTED_EDGE('',*,*,#429,.F.);
#721 = PLANE('',#722);
#722 = AXIS2_PLACEMENT_3D('',#723,#724,#725);
#723 = CARTESIAN_POINT('',(1.02,-1.02,0.));
#724 = DIRECTION('',(0.,-1.,0.));
#725 = DIRECTION('',(1.,0.,0.));
#726 = ADVANCED_FACE('',(#727),#738,.F.);
#727 = FACE_BOUND('',#728,.F.);
#728 = EDGE_LOOP('',(#729,#730,#736,#737));
#729 = ORIENTED_EDGE('',*,*,#667,.T.);
#730 = ORIENTED_EDGE('',*,*,#731,.T.);
#731 = EDGE_CURVE('',#660,#707,#732,.T.);
#732 = LINE('',#733,#734);
#733 = CARTESIAN_POINT('',(1.02,-1.52,-3.05));
#734 = VECTOR('',#735,1.);
#735 = DIRECTION('',(0.,1.,0.));
#736 = ORIENTED_EDGE('',*,*,#706,.F.);
#737 = ORIENTED_EDGE('',*,*,#421,.F.);
#738 = PLANE('',#739);
#739 = AXIS2_PLACEMENT_3D('',#740,#741,#742);
#740 = CARTESIAN_POINT('',(1.02,-1.52,0.));
#741 = DIRECTION('',(1.,0.,0.));
#742 = DIRECTION('',(0.,1.,0.));
#743 = ADVANCED_FACE('',(#744),#769,.F.);
#744 = FACE_BOUND('',#745,.F.);
#745 = EDGE_LOOP('',(#746,#754,#762,#768));
#746 = ORIENTED_EDGE('',*,*,#747,.T.);
#747 = EDGE_CURVE('',#446,#748,#750,.T.);
#748 = VERTEX_POINT('',#749);
#749 = CARTESIAN_POINT('',(-1.02,1.02,-3.05));
#750 = LINE('',#751,#752);
#751 = CARTESIAN_POINT('',(-1.02,1.02,0.));
#752 = VECTOR('',#753,1.);
#753 = DIRECTION('',(0.,0.,-1.));
#754 = ORIENTED_EDGE('',*,*,#755,.T.);
#755 = EDGE_CURVE('',#748,#756,#758,.T.);
#756 = VERTEX_POINT('',#757);
#757 = CARTESIAN_POINT('',(-1.52,1.02,-3.05));
#758 = LINE('',#759,#760);
#759 = CARTESIAN_POINT('',(-1.02,1.02,-3.05));
#760 = VECTOR('',#761,1.);
#761 = DIRECTION('',(-1.,0.,0.));
#762 = ORIENTED_EDGE('',*,*,#763,.F.);
#763 = EDGE_CURVE('',#448,#756,#764,.T.);
#764 = LINE('',#765,#766);
#765 = CARTESIAN_POINT('',(-1.52,1.02,0.));
#766 = VECTOR('',#767,1.);
#767 = DIRECTION('',(0.,0.,-1.));
#768 = ORIENTED_EDGE('',*,*,#445,.F.);
#769 = PLANE('',#770);
#770 = AXIS2_PLACEMENT_3D('',#771,#772,#773);
#771 = CARTESIAN_POINT('',(-1.02,1.02,0.));
#772 = DIRECTION('',(0.,1.,0.));
#773 = DIRECTION('',(-1.,0.,0.));
#774 = ADVANCED_FACE('',(#775),#793,.F.);
#775 = FACE_BOUND('',#776,.F.);
#776 = EDGE_LOOP('',(#777,#785,#791,#792));
#777 = ORIENTED_EDGE('',*,*,#778,.T.);
#778 = EDGE_CURVE('',#464,#779,#781,.T.);
#779 = VERTEX_POINT('',#780);
#780 = CARTESIAN_POINT('',(-1.02,1.52,-3.05));
#781 = LINE('',#782,#783);
#782 = CARTESIAN_POINT('',(-1.02,1.52,0.));
#783 = VECTOR('',#784,1.);
#784 = DIRECTION('',(0.,0.,-1.));
#785 = ORIENTED_EDGE('',*,*,#786,.T.);
#786 = EDGE_CURVE('',#779,#748,#787,.T.);
#787 = LINE('',#788,#789);
#788 = CARTESIAN_POINT('',(-1.02,1.52,-3.05));
#789 = VECTOR('',#790,1.);
#790 = DIRECTION('',(0.,-1.,0.));
#791 = ORIENTED_EDGE('',*,*,#747,.F.);
#792 = ORIENTED_EDGE('',*,*,#471,.F.);
#793 = PLANE('',#794);
#794 = AXIS2_PLACEMENT_3D('',#795,#796,#797);
#795 = CARTESIAN_POINT('',(-1.02,1.52,0.));
#796 = DIRECTION('',(-1.,-0.,-0.));
#797 = DIRECTION('',(0.,-1.,0.));
#798 = ADVANCED_FACE('',(#799),#817,.F.);
#799 = FACE_BOUND('',#800,.F.);
#800 = EDGE_LOOP('',(#801,#809,#815,#816));
#801 = ORIENTED_EDGE('',*,*,#802,.T.);
#802 = EDGE_CURVE('',#456,#803,#805,.T.);
#803 = VERTEX_POINT('',#804);
#804 = CARTESIAN_POINT('',(-1.52,1.52,-3.05));
#805 = LINE('',#806,#807);
#806 = CARTESIAN_POINT('',(-1.52,1.52,0.));
#807 = VECTOR('',#808,1.);
#808 = DIRECTION('',(0.,0.,-1.));
#809 = ORIENTED_EDGE('',*,*,#810,.T.);
#810 = EDGE_CURVE('',#803,#779,#811,.T.);
#811 = LINE('',#812,#813);
#812 = CARTESIAN_POINT('',(-1.52,1.52,-3.05));
#813 = VECTOR('',#814,1.);
#814 = DIRECTION('',(1.,0.,0.));
#815 = ORIENTED_EDGE('',*,*,#778,.F.);
#816 = ORIENTED_EDGE('',*,*,#463,.F.);
#817 = PLANE('',#818);
#818 = AXIS2_PLACEMENT_3D('',#819,#820,#821);
#819 = CARTESIAN_POINT('',(-1.52,1.52,0.));
#820 = DIRECTION('',(0.,-1.,0.));
#821 = DIRECTION('',(1.,0.,0.));
#822 = ADVANCED_FACE('',(#823),#834,.F.);
#823 = FACE_BOUND('',#824,.F.);
#824 = EDGE_LOOP('',(#825,#826,#832,#833));
#825 = ORIENTED_EDGE('',*,*,#763,.T.);
#826 = ORIENTED_EDGE('',*,*,#827,.T.);
#827 = EDGE_CURVE('',#756,#803,#828,.T.);
#828 = LINE('',#829,#830);
#829 = CARTESIAN_POINT('',(-1.52,1.02,-3.05));
#830 = VECTOR('',#831,1.);
#831 = DIRECTION('',(0.,1.,0.));
#832 = ORIENTED_EDGE('',*,*,#802,.F.);
#833 = ORIENTED_EDGE('',*,*,#455,.F.);
#834 = PLANE('',#835);
#835 = AXIS2_PLACEMENT_3D('',#836,#837,#838);
#836 = CARTESIAN_POINT('',(-1.52,1.02,0.));
#837 = DIRECTION('',(1.,0.,0.));
#838 = DIRECTION('',(0.,1.,0.));
#839 = ADVANCED_FACE('',(#840),#859,.T.);
#840 = FACE_BOUND('',#841,.F.);
#841 = EDGE_LOOP('',(#842,#850,#857,#858));
#842 = ORIENTED_EDGE('',*,*,#843,.T.);
#843 = EDGE_CURVE('',#480,#844,#846,.T.);
#844 = VERTEX_POINT('',#845);
#845 = CARTESIAN_POINT('',(0.35,0.,-2.95));
#846 = LINE('',#847,#848);
#847 = CARTESIAN_POINT('',(0.35,0.,0.));
#848 = VECTOR('',#849,1.);
#849 = DIRECTION('',(0.,0.,-1.));
#850 = ORIENTED_EDGE('',*,*,#851,.T.);
#851 = EDGE_CURVE('',#844,#844,#852,.T.);
#852 = CIRCLE('',#853,0.35);
#853 = AXIS2_PLACEMENT_3D('',#854,#855,#856);
#854 = CARTESIAN_POINT('',(0.,0.,-2.95));
#855 = DIRECTION('',(0.,0.,-1.));
#856 = DIRECTION('',(1.,0.,0.));
#857 = ORIENTED_EDGE('',*,*,#843,.F.);
#858 = ORIENTED_EDGE('',*,*,#479,.F.);
#859 = CYLINDRICAL_SURFACE('',#860,0.35);
#860 = AXIS2_PLACEMENT_3D('',#861,#862,#863);
#861 = CARTESIAN_POINT('',(0.,0.,0.));
#862 = DIRECTION('',(0.,0.,1.));
#863 = DIRECTION('',(1.,0.,0.));
#864 = ADVANCED_FACE('',(#865),#890,.F.);
#865 = FACE_BOUND('',#866,.F.);
#866 = EDGE_LOOP('',(#867,#875,#883,#889));
#867 = ORIENTED_EDGE('',*,*,#868,.T.);
#868 = EDGE_CURVE('',#491,#869,#871,.T.);
#869 = VERTEX_POINT('',#870);
#870 = CARTESIAN_POINT('',(1.52,1.52,-3.05));
#871 = LINE('',#872,#873);
#872 = CARTESIAN_POINT('',(1.52,1.52,0.));
#873 = VECTOR('',#874,1.);
#874 = DIRECTION('',(0.,0.,-1.));
#875 = ORIENTED_EDGE('',*,*,#876,.T.);
#876 = EDGE_CURVE('',#869,#877,#879,.T.);
#877 = VERTEX_POINT('',#878);
#878 = CARTESIAN_POINT('',(1.52,1.02,-3.05));
#879 = LINE('',#880,#881);
#880 = CARTESIAN_POINT('',(1.52,1.52,-3.05));
#881 = VECTOR('',#882,1.);
#882 = DIRECTION('',(0.,-1.,0.));
#883 = ORIENTED_EDGE('',*,*,#884,.F.);
#884 = EDGE_CURVE('',#493,#877,#885,.T.);
#885 = LINE('',#886,#887);
#886 = CARTESIAN_POINT('',(1.52,1.02,0.));
#887 = VECTOR('',#888,1.);
#888 = DIRECTION('',(0.,0.,-1.));
#889 = ORIENTED_EDGE('',*,*,#490,.F.);
#890 = PLANE('',#891);
#891 = AXIS2_PLACEMENT_3D('',#892,#893,#894);
#892 = CARTESIAN_POINT('',(1.52,1.52,0.));
#893 = DIRECTION('',(-1.,-0.,-0.));
#894 = DIRECTION('',(0.,-1.,0.));
#895 = ADVANCED_FACE('',(#896),#914,.F.);
#896 = FACE_BOUND('',#897,.F.);
#897 = EDGE_LOOP('',(#898,#906,#912,#913));
#898 = ORIENTED_EDGE('',*,*,#899,.T.);
#899 = EDGE_CURVE('',#509,#900,#902,.T.);
#900 = VERTEX_POINT('',#901);
#901 = CARTESIAN_POINT('',(1.02,1.52,-3.05));
#902 = LINE('',#903,#904);
#903 = CARTESIAN_POINT('',(1.02,1.52,0.));
#904 = VECTOR('',#905,1.);
#905 = DIRECTION('',(0.,0.,-1.));
#906 = ORIENTED_EDGE('',*,*,#907,.T.);
#907 = EDGE_CURVE('',#900,#869,#908,.T.);
#908 = LINE('',#909,#910);
#909 = CARTESIAN_POINT('',(1.02,1.52,-3.05));
#910 = VECTOR('',#911,1.);
#911 = DIRECTION('',(1.,0.,0.));
#912 = ORIENTED_EDGE('',*,*,#868,.F.);
#913 = ORIENTED_EDGE('',*,*,#516,.F.);
#914 = PLANE('',#915);
#915 = AXIS2_PLACEMENT_3D('',#916,#917,#918);
#916 = CARTESIAN_POINT('',(1.02,1.52,0.));
#917 = DIRECTION('',(0.,-1.,0.));
#918 = DIRECTION('',(1.,0.,0.));
#919 = ADVANCED_FACE('',(#920),#938,.F.);
#920 = FACE_BOUND('',#921,.F.);
#921 = EDGE_LOOP('',(#922,#930,#936,#937));
#922 = ORIENTED_EDGE('',*,*,#923,.T.);
#923 = EDGE_CURVE('',#501,#924,#926,.T.);
#924 = VERTEX_POINT('',#925);
#925 = CARTESIAN_POINT('',(1.02,1.02,-3.05));
#926 = LINE('',#927,#928);
#927 = CARTESIAN_POINT('',(1.02,1.02,0.));
#928 = VECTOR('',#929,1.);
#929 = DIRECTION('',(0.,0.,-1.));
#930 = ORIENTED_EDGE('',*,*,#931,.T.);
#931 = EDGE_CURVE('',#924,#900,#932,.T.);
#932 = LINE('',#933,#934);
#933 = CARTESIAN_POINT('',(1.02,1.02,-3.05));
#934 = VECTOR('',#935,1.);
#935 = DIRECTION('',(0.,1.,0.));
#936 = ORIENTED_EDGE('',*,*,#899,.F.);
#937 = ORIENTED_EDGE('',*,*,#508,.F.);
#938 = PLANE('',#939);
#939 = AXIS2_PLACEMENT_3D('',#940,#941,#942);
#940 = CARTESIAN_POINT('',(1.02,1.02,0.));
#941 = DIRECTION('',(1.,0.,0.));
#942 = DIRECTION('',(0.,1.,0.));
#943 = ADVANCED_FACE('',(#944),#955,.F.);
#944 = FACE_BOUND('',#945,.F.);
#945 = EDGE_LOOP('',(#946,#947,#953,#954));
#946 = ORIENTED_EDGE('',*,*,#884,.T.);
#947 = ORIENTED_EDGE('',*,*,#948,.T.);
#948 = EDGE_CURVE('',#877,#924,#949,.T.);
#949 = LINE('',#950,#951);
#950 = CARTESIAN_POINT('',(1.52,1.02,-3.05));
#951 = VECTOR('',#952,1.);
#952 = DIRECTION('',(-1.,0.,0.));
#953 = ORIENTED_EDGE('',*,*,#923,.F.);
#954 = ORIENTED_EDGE('',*,*,#500,.F.);
#955 = PLANE('',#956);
#956 = AXIS2_PLACEMENT_3D('',#957,#958,#959);
#957 = CARTESIAN_POINT('',(1.52,1.02,0.));
#958 = DIRECTION('',(0.,1.,0.));
#959 = DIRECTION('',(-1.,0.,0.));
#960 = ADVANCED_FACE('',(#961),#981,.T.);
#961 = FACE_BOUND('',#962,.F.);
#962 = EDGE_LOOP('',(#963,#964,#973,#980));
#963 = ORIENTED_EDGE('',*,*,#530,.T.);
#964 = ORIENTED_EDGE('',*,*,#965,.T.);
#965 = EDGE_CURVE('',#531,#966,#968,.T.);
#966 = VERTEX_POINT('',#967);
#967 = CARTESIAN_POINT('',(0.,1.315,2.62));
#968 = CIRCLE('',#969,0.2);
#969 = AXIS2_PLACEMENT_3D('',#970,#971,#972);
#970 = CARTESIAN_POINT('',(0.,1.315,2.42));
#971 = DIRECTION('',(1.,0.,0.));
#972 = DIRECTION('',(0.,1.,0.));
#973 = ORIENTED_EDGE('',*,*,#974,.F.);
#974 = EDGE_CURVE('',#966,#966,#975,.T.);
#975 = CIRCLE('',#976,1.315);
#976 = AXIS2_PLACEMENT_3D('',#977,#978,#979);
#977 = CARTESIAN_POINT('',(0.,0.,2.62));
#978 = DIRECTION('',(0.,0.,-1.));
#979 = DIRECTION('',(0.,1.,0.));
#980 = ORIENTED_EDGE('',*,*,#965,.F.);
#981 = TOROIDAL_SURFACE('',#982,1.315,0.2);
#982 = AXIS2_PLACEMENT_3D('',#983,#984,#985);
#983 = CARTESIAN_POINT('',(0.,0.,2.42));
#984 = DIRECTION('',(0.,0.,1.));
#985 = DIRECTION('',(0.,1.,0.));
#986 = ADVANCED_FACE('',(#987),#993,.F.);
#987 = FACE_BOUND('',#988,.T.);
#988 = EDGE_LOOP('',(#989,#990,#991,#992));
#989 = ORIENTED_EDGE('',*,*,#635,.T.);
#990 = ORIENTED_EDGE('',*,*,#618,.T.);
#991 = ORIENTED_EDGE('',*,*,#594,.T.);
#992 = ORIENTED_EDGE('',*,*,#563,.T.);
#993 = PLANE('',#994);
#994 = AXIS2_PLACEMENT_3D('',#995,#996,#997);
#995 = CARTESIAN_POINT('',(4.E-17,-5.E-17,-3.05));
#996 = DIRECTION('',(0.,0.,1.));
#997 = DIRECTION('',(1.,0.,0.));
#998 = ADVANCED_FACE('',(#999),#1005,.F.);
#999 = FACE_BOUND('',#1000,.T.);
#1000 = EDGE_LOOP('',(#1001,#1002,#1003,#1004));
#1001 = ORIENTED_EDGE('',*,*,#731,.T.);
#1002 = ORIENTED_EDGE('',*,*,#714,.T.);
#1003 = ORIENTED_EDGE('',*,*,#690,.T.);
#1004 = ORIENTED_EDGE('',*,*,#659,.T.);
#1005 = PLANE('',#1006);
#1006 = AXIS2_PLACEMENT_3D('',#1007,#1008,#1009);
#1007 = CARTESIAN_POINT('',(4.E-17,-5.E-17,-3.05));
#1008 = DIRECTION('',(0.,0.,1.));
#1009 = DIRECTION('',(1.,0.,0.));
#1010 = ADVANCED_FACE('',(#1011),#1017,.F.);
#1011 = FACE_BOUND('',#1012,.T.);
#1012 = EDGE_LOOP('',(#1013,#1014,#1015,#1016));
#1013 = ORIENTED_EDGE('',*,*,#827,.T.);
#1014 = ORIENTED_EDGE('',*,*,#810,.T.);
#1015 = ORIENTED_EDGE('',*,*,#786,.T.);
#1016 = ORIENTED_EDGE('',*,*,#755,.T.);
#1017 = PLANE('',#1018);
#1018 = AXIS2_PLACEMENT_3D('',#1019,#1020,#1021);
#1019 = CARTESIAN_POINT('',(4.E-17,-5.E-17,-3.05));
#1020 = DIRECTION('',(0.,0.,1.));
#1021 = DIRECTION('',(1.,0.,0.));
#1022 = ADVANCED_FACE('',(#1023),#1042,.T.);
#1023 = FACE_BOUND('',#1024,.T.);
#1024 = EDGE_LOOP('',(#1025,#1033,#1034,#1035));
#1025 = ORIENTED_EDGE('',*,*,#1026,.F.);
#1026 = EDGE_CURVE('',#844,#1027,#1029,.T.);
#1027 = VERTEX_POINT('',#1028);
#1028 = CARTESIAN_POINT('',(0.25,0.,-3.05));
#1029 = LINE('',#1030,#1031);
#1030 = CARTESIAN_POINT('',(0.35,0.,-2.95));
#1031 = VECTOR('',#1032,1.);
#1032 = DIRECTION('',(-0.707106781187,0.,-0.707106781187));
#1033 = ORIENTED_EDGE('',*,*,#851,.T.);
#1034 = ORIENTED_EDGE('',*,*,#1026,.T.);
#1035 = ORIENTED_EDGE('',*,*,#1036,.F.);
#1036 = EDGE_CURVE('',#1027,#1027,#1037,.T.);
#1037 = CIRCLE('',#1038,0.25);
#1038 = AXIS2_PLACEMENT_3D('',#1039,#1040,#1041);
#1039 = CARTESIAN_POINT('',(0.,0.,-3.05));
#1040 = DIRECTION('',(0.,0.,-1.));
#1041 = DIRECTION('',(1.,0.,0.));
#1042 = CONICAL_SURFACE('',#1043,0.35,0.785398163397);
#1043 = AXIS2_PLACEMENT_3D('',#1044,#1045,#1046);
#1044 = CARTESIAN_POINT('',(0.,0.,-2.95));
#1045 = DIRECTION('',(0.,0.,1.));
#1046 = DIRECTION('',(1.,0.,0.));
#1047 = ADVANCED_FACE('',(#1048),#1054,.F.);
#1048 = FACE_BOUND('',#1049,.T.);
#1049 = EDGE_LOOP('',(#1050,#1051,#1052,#1053));
#1050 = ORIENTED_EDGE('',*,*,#948,.T.);
#1051 = ORIENTED_EDGE('',*,*,#931,.T.);
#1052 = ORIENTED_EDGE('',*,*,#907,.T.);
#1053 = ORIENTED_EDGE('',*,*,#876,.T.);
#1054 = PLANE('',#1055);
#1055 = AXIS2_PLACEMENT_3D('',#1056,#1057,#1058);
#1056 = CARTESIAN_POINT('',(4.E-17,-5.E-17,-3.05));
#1057 = DIRECTION('',(0.,0.,1.));
#1058 = DIRECTION('',(1.,0.,0.));
#1059 = ADVANCED_FACE('',(#1060,#1071),#1074,.F.);
#1060 = FACE_BOUND('',#1061,.T.);
#1061 = EDGE_LOOP('',(#1062));
#1062 = ORIENTED_EDGE('',*,*,#1063,.T.);
#1063 = EDGE_CURVE('',#1064,#1064,#1066,.T.);
#1064 = VERTEX_POINT('',#1065);
#1065 = CARTESIAN_POINT('',(0.,1.19,2.62));
#1066 = CIRCLE('',#1067,1.19);
#1067 = AXIS2_PLACEMENT_3D('',#1068,#1069,#1070);
#1068 = CARTESIAN_POINT('',(0.,0.,2.62));
#1069 = DIRECTION('',(0.,0.,-1.));
#1070 = DIRECTION('',(0.,1.,0.));
#1071 = FACE_BOUND('',#1072,.T.);
#1072 = EDGE_LOOP('',(#1073));
#1073 = ORIENTED_EDGE('',*,*,#974,.F.);
#1074 = PLANE('',#1075);
#1075 = AXIS2_PLACEMENT_3D('',#1076,#1077,#1078);
#1076 = CARTESIAN_POINT('',(0.,0.,2.62));
#1077 = DIRECTION('',(-0.,-0.,-1.));
#1078 = DIRECTION('',(-0.,1.,-0.));
#1079 = ADVANCED_FACE('',(#1080),#1083,.F.);
#1080 = FACE_BOUND('',#1081,.F.);
#1081 = EDGE_LOOP('',(#1082));
#1082 = ORIENTED_EDGE('',*,*,#1036,.F.);
#1083 = PLANE('',#1084);
#1084 = AXIS2_PLACEMENT_3D('',#1085,#1086,#1087);
#1085 = CARTESIAN_POINT('',(4.E-17,-5.E-17,-3.05));
#1086 = DIRECTION('',(0.,0.,1.));
#1087 = DIRECTION('',(1.,0.,0.));
#1088 = ADVANCED_FACE('',(#1089),#1108,.T.);
#1089 = FACE_BOUND('',#1090,.T.);
#1090 = EDGE_LOOP('',(#1091,#1100,#1106,#1107));
#1091 = ORIENTED_EDGE('',*,*,#1092,.T.);
#1092 = EDGE_CURVE('',#1093,#1093,#1095,.T.);
#1093 = VERTEX_POINT('',#1094);
#1094 = CARTESIAN_POINT('',(0.,1.19,4.12));
#1095 = CIRCLE('',#1096,1.19);
#1096 = AXIS2_PLACEMENT_3D('',#1097,#1098,#1099);
#1097 = CARTESIAN_POINT('',(0.,0.,4.12));
#1098 = DIRECTION('',(0.,0.,-1.));
#1099 = DIRECTION('',(0.,1.,0.));
#1100 = ORIENTED_EDGE('',*,*,#1101,.T.);
#1101 = EDGE_CURVE('',#1093,#1064,#1102,.T.);
#1102 = LINE('',#1103,#1104);
#1103 = CARTESIAN_POINT('',(0.,1.19,4.12));
#1104 = VECTOR('',#1105,1.);
#1105 = DIRECTION('',(0.,0.,-1.));
#1106 = ORIENTED_EDGE('',*,*,#1063,.F.);
#1107 = ORIENTED_EDGE('',*,*,#1101,.F.);
#1108 = CYLINDRICAL_SURFACE('',#1109,1.19);
#1109 = AXIS2_PLACEMENT_3D('',#1110,#1111,#1112);
#1110 = CARTESIAN_POINT('',(0.,0.,4.12));
#1111 = DIRECTION('',(-0.,-0.,-1.));
#1112 = DIRECTION('',(0.,1.,-0.));
#1113 = ADVANCED_FACE('',(#1114),#1133,.T.);
#1114 = FACE_BOUND('',#1115,.T.);
#1115 = EDGE_LOOP('',(#1116,#1125,#1131,#1132));
#1116 = ORIENTED_EDGE('',*,*,#1117,.T.);
#1117 = EDGE_CURVE('',#1118,#1118,#1120,.T.);
#1118 = VERTEX_POINT('',#1119);
#1119 = CARTESIAN_POINT('',(0.,0.99,4.32));
#1120 = CIRCLE('',#1121,0.99);
#1121 = AXIS2_PLACEMENT_3D('',#1122,#1123,#1124);
#1122 = CARTESIAN_POINT('',(0.,0.,4.32));
#1123 = DIRECTION('',(0.,0.,-1.));
#1124 = DIRECTION('',(0.,1.,0.));
#1125 = ORIENTED_EDGE('',*,*,#1126,.T.);
#1126 = EDGE_CURVE('',#1118,#1093,#1127,.T.);
#1127 = LINE('',#1128,#1129);
#1128 = CARTESIAN_POINT('',(0.,0.99,4.32));
#1129 = VECTOR('',#1130,1.);
#1130 = DIRECTION('',(0.,0.707106781187,-0.707106781187));
#1131 = ORIENTED_EDGE('',*,*,#1092,.F.);
#1132 = ORIENTED_EDGE('',*,*,#1126,.F.);
#1133 = CONICAL_SURFACE('',#1134,0.99,0.785398163397);
#1134 = AXIS2_PLACEMENT_3D('',#1135,#1136,#1137);
#1135 = CARTESIAN_POINT('',(0.,0.,4.32));
#1136 = DIRECTION('',(-0.,-0.,-1.));
#1137 = DIRECTION('',(0.,1.,-0.));
#1138 = ADVANCED_FACE('',(#1139,#1150),#1153,.F.);
#1139 = FACE_BOUND('',#1140,.T.);
#1140 = EDGE_LOOP('',(#1141));
#1141 = ORIENTED_EDGE('',*,*,#1142,.T.);
#1142 = EDGE_CURVE('',#1143,#1143,#1145,.T.);
#1143 = VERTEX_POINT('',#1144);
#1144 = CARTESIAN_POINT('',(0.,0.8,4.32));
#1145 = CIRCLE('',#1146,0.8);
#1146 = AXIS2_PLACEMENT_3D('',#1147,#1148,#1149);
#1147 = CARTESIAN_POINT('',(0.,0.,4.32));
#1148 = DIRECTION('',(0.,0.,-1.));
#1149 = DIRECTION('',(0.,1.,0.));
#1150 = FACE_BOUND('',#1151,.T.);
#1151 = EDGE_LOOP('',(#1152));
#1152 = ORIENTED_EDGE('',*,*,#1117,.F.);
#1153 = PLANE('',#1154);
#1154 = AXIS2_PLACEMENT_3D('',#1155,#1156,#1157);
#1155 = CARTESIAN_POINT('',(0.,0.,4.32));
#1156 = DIRECTION('',(-0.,-0.,-1.));
#1157 = DIRECTION('',(-0.,1.,-0.));
#1158 = ADVANCED_FACE('',(#1159),#1178,.F.);
#1159 = FACE_BOUND('',#1160,.T.);
#1160 = EDGE_LOOP('',(#1161,#1170,#1176,#1177));
#1161 = ORIENTED_EDGE('',*,*,#1162,.T.);
#1162 = EDGE_CURVE('',#1163,#1163,#1165,.T.);
#1163 = VERTEX_POINT('',#1164);
#1164 = CARTESIAN_POINT('',(0.,0.8,2.92));
#1165 = CIRCLE('',#1166,0.8);
#1166 = AXIS2_PLACEMENT_3D('',#1167,#1168,#1169);
#1167 = CARTESIAN_POINT('',(0.,0.,2.92));
#1168 = DIRECTION('',(0.,0.,-1.));
#1169 = DIRECTION('',(0.,1.,0.));
#1170 = ORIENTED_EDGE('',*,*,#1171,.T.);
#1171 = EDGE_CURVE('',#1163,#1143,#1172,.T.);
#1172 = LINE('',#1173,#1174);
#1173 = CARTESIAN_POINT('',(0.,0.8,2.92));
#1174 = VECTOR('',#1175,1.);
#1175 = DIRECTION('',(0.,0.,1.));
#1176 = ORIENTED_EDGE('',*,*,#1142,.F.);
#1177 = ORIENTED_EDGE('',*,*,#1171,.F.);
#1178 = CYLINDRICAL_SURFACE('',#1179,0.8);
#1179 = AXIS2_PLACEMENT_3D('',#1180,#1181,#1182);
#1180 = CARTESIAN_POINT('',(0.,0.,2.92));
#1181 = DIRECTION('',(0.,0.,1.));
#1182 = DIRECTION('',(0.,1.,0.));
#1183 = ADVANCED_FACE('',(#1184,#1195),#1198,.F.);
#1184 = FACE_BOUND('',#1185,.T.);
#1185 = EDGE_LOOP('',(#1186));
#1186 = ORIENTED_EDGE('',*,*,#1187,.T.);
#1187 = EDGE_CURVE('',#1188,#1188,#1190,.T.);
#1188 = VERTEX_POINT('',#1189);
#1189 = CARTESIAN_POINT('',(0.,0.2,2.92));
#1190 = CIRCLE('',#1191,0.2);
#1191 = AXIS2_PLACEMENT_3D('',#1192,#1193,#1194);
#1192 = CARTESIAN_POINT('',(0.,0.,2.92));
#1193 = DIRECTION('',(0.,0.,-1.));
#1194 = DIRECTION('',(0.,1.,0.));
#1195 = FACE_BOUND('',#1196,.T.);
#1196 = EDGE_LOOP('',(#1197));
#1197 = ORIENTED_EDGE('',*,*,#1162,.F.);
#1198 = PLANE('',#1199);
#1199 = AXIS2_PLACEMENT_3D('',#1200,#1201,#1202);
#1200 = CARTESIAN_POINT('',(0.,0.,2.92));
#1201 = DIRECTION('',(-0.,-0.,-1.));
#1202 = DIRECTION('',(-0.,1.,-0.));
#1203 = ADVANCED_FACE('',(#1204),#1223,.T.);
#1204 = FACE_BOUND('',#1205,.T.);
#1205 = EDGE_LOOP('',(#1206,#1215,#1221,#1222));
#1206 = ORIENTED_EDGE('',*,*,#1207,.T.);
#1207 = EDGE_CURVE('',#1208,#1208,#1210,.T.);
#1208 = VERTEX_POINT('',#1209);
#1209 = CARTESIAN_POINT('',(0.,0.2,4.02));
#1210 = CIRCLE('',#1211,0.2);
#1211 = AXIS2_PLACEMENT_3D('',#1212,#1213,#1214);
#1212 = CARTESIAN_POINT('',(0.,0.,4.02));
#1213 = DIRECTION('',(0.,0.,-1.));
#1214 = DIRECTION('',(0.,1.,0.));
#1215 = ORIENTED_EDGE('',*,*,#1216,.T.);
#1216 = EDGE_CURVE('',#1208,#1188,#1217,.T.);
#1217 = LINE('',#1218,#1219);
#1218 = CARTESIAN_POINT('',(0.,0.2,4.02));
#1219 = VECTOR('',#1220,1.);
#1220 = DIRECTION('',(0.,0.,-1.));
#1221 = ORIENTED_EDGE('',*,*,#1187,.F.);
#1222 = ORIENTED_EDGE('',*,*,#1216,.F.);
#1223 = CYLINDRICAL_SURFACE('',#1224,0.2);
#1224 = AXIS2_PLACEMENT_3D('',#1225,#1226,#1227);
#1225 = CARTESIAN_POINT('',(0.,0.,4.02));
#1226 = DIRECTION('',(-0.,-0.,-1.));
#1227 = DIRECTION('',(0.,1.,-0.));
#1228 = ADVANCED_FACE('',(#1229),#1248,.T.);
#1229 = FACE_BOUND('',#1230,.T.);
#1230 = EDGE_LOOP('',(#1231,#1240,#1246,#1247));
#1231 = ORIENTED_EDGE('',*,*,#1232,.T.);
#1232 = EDGE_CURVE('',#1233,#1233,#1235,.T.);
#1233 = VERTEX_POINT('',#1234);
#1234 = CARTESIAN_POINT('',(0.,0.1,4.12));
#1235 = CIRCLE('',#1236,0.1);
#1236 = AXIS2_PLACEMENT_3D('',#1237,#1238,#1239);
#1237 = CARTESIAN_POINT('',(0.,0.,4.12));
#1238 = DIRECTION('',(0.,0.,-1.));
#1239 = DIRECTION('',(0.,1.,0.));
#1240 = ORIENTED_EDGE('',*,*,#1241,.T.);
#1241 = EDGE_CURVE('',#1233,#1208,#1242,.T.);
#1242 = LINE('',#1243,#1244);
#1243 = CARTESIAN_POINT('',(0.,0.1,4.12));
#1244 = VECTOR('',#1245,1.);
#1245 = DIRECTION('',(0.,0.707106781187,-0.707106781187));
#1246 = ORIENTED_EDGE('',*,*,#1207,.F.);
#1247 = ORIENTED_EDGE('',*,*,#1241,.F.);
#1248 = CONICAL_SURFACE('',#1249,0.1,0.785398163397);
#1249 = AXIS2_PLACEMENT_3D('',#1250,#1251,#1252);
#1250 = CARTESIAN_POINT('',(0.,0.,4.12));
#1251 = DIRECTION('',(-0.,-0.,-1.));
#1252 = DIRECTION('',(0.,1.,-0.));
#1253 = ADVANCED_FACE('',(#1254),#1257,.F.);
#1254 = FACE_BOUND('',#1255,.T.);
#1255 = EDGE_LOOP('',(#1256));
#1256 = ORIENTED_EDGE('',*,*,#1232,.F.);
#1257 = PLANE('',#1258);
#1258 = AXIS2_PLACEMENT_3D('',#1259,#1260,#1261);
#1259 = CARTESIAN_POINT('',(0.,0.,4.12));
#1260 = DIRECTION('',(-0.,-0.,-1.));
#1261 = DIRECTION('',(-0.,1.,-0.));
#1262 = ( GEOMETRIC_REPRESENTATION_CONTEXT(3) 
GLOBAL_UNCERTAINTY_ASSIGNED_CONTEXT((#1266)) 
GLOBAL_UNIT_ASSIGNED_CONTEXT((#1263,#1264,#1265)) REPRESENTATION_CONTEXT
('Context #1','3D Context with UNIT and UNCERTAINTY') );
#1263 = ( LENGTH_UNIT() NAMED_UNIT(*) SI_UNIT(.MILLI.,.METRE.) );
#1264 = ( NAMED_UNIT(*) PLANE_ANGLE_UNIT() SI_UNIT($,.RADIAN.) );
#1265 = ( NAMED_UNIT(*) SI_UNIT($,.STERADIAN.) SOLID_ANGLE_UNIT() );
#1266 = UNCERTAINTY_MEASURE_WITH_UNIT(LENGTH_MEASURE(1.E-07),#1263,
  'distance_accuracy_value','confusion accuracy');
#1267 = PRODUCT_RELATED_PRODUCT_CATEGORY('part',$,(#7));
#1268 = MECHANICAL_DESIGN_GEOMETRIC_PRESENTATION_REPRESENTATION('',(
    #1269),#1262);
#1269 = STYLED_ITEM('color',(#1270),#15);
#1270 = PRESENTATION_STYLE_ASSIGNMENT((#1271,#1277));
#1271 = SURFACE_STYLE_USAGE(.BOTH.,#1272);
#1272 = SURFACE_SIDE_STYLE('',(#1273));
#1273 = SURFACE_STYLE_FILL_AREA(#1274);
#1274 = FILL_AREA_STYLE('',(#1275));
#1275 = FILL_AREA_STYLE_COLOUR('',#1276);
#1276 = COLOUR_RGB('',0.399999997426,0.274509816483,0.);
#1277 = CURVE_STYLE('',#1278,POSITIVE_LENGTH_MEASURE(0.1),#1279);
#1278 = DRAUGHTING_PRE_DEFINED_CURVE_FONT('continuous');
#1279 = COLOUR_RGB('',9.803921802644E-02,9.803921802644E-02,
  9.803921802644E-02);
ENDSEC;
END-ISO-10303-21;
